<?xml version="1.0" encoding="UTF-8" standalone="no"?>
<svg
   xmlns:dc="http://purl.org/dc/elements/1.1/"
   xmlns:cc="http://creativecommons.org/ns#"
   xmlns:rdf="http://www.w3.org/1999/02/22-rdf-syntax-ns#"
   xmlns:svg="http://www.w3.org/2000/svg"
   xmlns="http://www.w3.org/2000/svg"
   id="svg2451"
   viewBox="0, 0, 128, 128"
   height="128"
   width="128"
   y="0px"
   x="0px"
   version="1.1">
  <metadata
     id="metadata2455">
    <rdf:RDF>
      <cc:Work
         rdf:about="">
        <dc:format>image/svg+xml</dc:format>
        <dc:type
           rdf:resource="http://purl.org/dc/dcmitype/StillImage" />
        <dc:title></dc:title>
      </cc:Work>
    </rdf:RDF>
  </metadata>
  <g
     id="Background">
    <rect
       id="rect2434"
       fill-opacity="0"
       fill="#000000"
       height="128"
       width="128"
       y="0"
       x="0" />
  </g>
  <g
     id="g2447">
    <path
       id="path2437"
       fill="#737370"
       d="M18.092,6 L109.903,6 C116.552,6 122,11.441 122,18.096 L122,109.902 C122,116.559 116.552,122 109.903,122 L18.092,122 C11.436,122 6,116.559 6,109.902 L6,18.096 C6,11.441 11.436,6 18.092,6" />
    <g
       style="fill:#ebeded;fill-opacity:1"
       id="g3681"
       transform="matrix(0.2025,0,0,0.2025,11.313137,17.859557)" />
    <g
       style="fill:#ebeded;fill-opacity:1"
       id="g3683"
       transform="matrix(0.2025,0,0,0.2025,11.313137,17.859557)" />
    <g
       style="fill:#ebeded;fill-opacity:1"
       id="g3685"
       transform="matrix(0.2025,0,0,0.2025,11.313137,17.859557)" />
    <g
       style="fill:#ebeded;fill-opacity:1"
       id="g3687"
       transform="matrix(0.2025,0,0,0.2025,11.313137,17.859557)" />
    <g
       style="fill:#ebeded;fill-opacity:1"
       id="g3689"
       transform="matrix(0.2025,0,0,0.2025,11.313137,17.859557)" />
    <g
       style="fill:#ebeded;fill-opacity:1"
       id="g3691"
       transform="matrix(0.2025,0,0,0.2025,11.313137,17.859557)" />
    <g
       style="fill:#ebeded;fill-opacity:1"
       id="g3693"
       transform="matrix(0.2025,0,0,0.2025,11.313137,17.859557)" />
    <g
       style="fill:#ebeded;fill-opacity:1"
       id="g3695"
       transform="matrix(0.2025,0,0,0.2025,11.313137,17.859557)" />
    <g
       style="fill:#ebeded;fill-opacity:1"
       id="g3697"
       transform="matrix(0.2025,0,0,0.2025,11.313137,17.859557)" />
    <g
       style="fill:#ebeded;fill-opacity:1"
       id="g3699"
       transform="matrix(0.2025,0,0,0.2025,11.313137,17.859557)" />
    <g
       style="fill:#ebeded;fill-opacity:1"
       id="g3701"
       transform="matrix(0.2025,0,0,0.2025,11.313137,17.859557)" />
    <g
       style="fill:#ebeded;fill-opacity:1"
       id="g3703"
       transform="matrix(0.2025,0,0,0.2025,11.313137,17.859557)" />
    <g
       style="fill:#ebeded;fill-opacity:1"
       id="g3705"
       transform="matrix(0.2025,0,0,0.2025,11.313137,17.859557)" />
    <g
       style="fill:#ebeded;fill-opacity:1"
       id="g3707"
       transform="matrix(0.2025,0,0,0.2025,11.313137,17.859557)" />
    <g
       style="fill:#ebeded;fill-opacity:1"
       id="g3709"
       transform="matrix(0.2025,0,0,0.2025,11.313137,17.859557)" />
  </g>
  <defs
     id="defs2449" />
  <g
     id="g6762"
     transform="translate(-545.15276,-331.34145)" />
  <g
     id="g6764"
     transform="translate(-545.15276,-331.34145)" />
  <g
     id="g6766"
     transform="translate(-545.15276,-331.34145)" />
  <g
     id="g6768"
     transform="translate(-545.15276,-331.34145)" />
  <g
     id="g6770"
     transform="translate(-545.15276,-331.34145)" />
  <g
     id="g6772"
     transform="translate(-545.15276,-331.34145)" />
  <g
     id="g6774"
     transform="translate(-545.15276,-331.34145)" />
  <g
     id="g6776"
     transform="translate(-545.15276,-331.34145)" />
  <g
     id="g6778"
     transform="translate(-545.15276,-331.34145)" />
  <g
     id="g6780"
     transform="translate(-545.15276,-331.34145)" />
  <g
     id="g6782"
     transform="translate(-545.15276,-331.34145)" />
  <g
     id="g6784"
     transform="translate(-545.15276,-331.34145)" />
  <g
     id="g6786"
     transform="translate(-545.15276,-331.34145)" />
  <g
     id="g6788"
     transform="translate(-545.15276,-331.34145)" />
  <g
     id="g6790"
     transform="translate(-545.15276,-331.34145)" />
  <path
     style="fill:#ebeded;fill-opacity:1"
     id="path5116"
     d="m 115.79485,30.594913 c -7.5446,1.12805 -18.378852,0.36225 -26.497452,-3.90775 l 1.52425,-2.68065 c 0.96285,-1.6933 0.371,-3.8465 -1.3223,-4.80935 -1.69505,-0.96355 -3.84685,-0.3703 -4.80935,1.3223 l -1.36745,2.4052 -6.10225,-3.49335 c -1.32265,-0.75705 -3.02365,-0.2947 -3.78035,1.0276 l -6.98215,12.1961 c -0.7567,1.32195 -0.2947,3.024 1.02795,3.78035 l 6.1516,3.52205 -9.62185,16.9211 -9.62185,-16.92145 6.1509,-3.52135 c 1.32265,-0.75635 1.7857,-2.45805 1.02865,-3.78035 l -6.9818,-12.1961 c -0.75705,-1.32195 -2.4584,-1.78465 -3.78035,-1.0276 l -6.10225,3.49335 -1.36745,-2.4052 c -0.9625,-1.6933 -3.1157,-2.28585 -4.80935,-1.3223 -1.6933,0.96285 -2.28515,3.11605 -1.3223,4.80935 l 1.5239,2.68065 c -8.11965,4.27 -18.9546,5.0358 -26.49815,3.90775 0,0 -0.88305,7.6587 5.60665,18.99765 6.49215,11.33825 13.54325,14.45325 13.54325,14.45325 2.89065,-7.18305 8.77275,-16.07095 16.7321,-20.8572 l 11.8412,20.82395 -23.7167,41.707757 c -0.96285,1.6933 -0.371,3.8465 1.3223,4.80935 0.55055,0.31325 1.14905,0.46165 1.7402,0.46165 1.2271,0 2.41955,-0.64155 3.0695,-1.7843 l 21.64155,-38.059357 21.6419,38.059357 c 0.6496,1.1431 1.8424,1.7843 3.06915,1.7843 0.5908,0 1.1893,-0.14875 1.7402,-0.46165 1.6933,-0.96285 2.28515,-3.11605 1.3223,-4.80935 l -23.71635,-41.707757 11.84085,-20.8229 c 7.9597,4.7859 13.8411,13.67345 16.7321,20.85615 0,0 7.051452,-3.115 13.542552,-14.45325 6.4911,-11.3393 5.60665,-18.998 5.60665,-18.998 z" />
  <g
     id="g5118"
     transform="matrix(0.35,0,0,0.35,127.20432,12.177077)" />
  <g
     id="g5120"
     transform="matrix(0.35,0,0,0.35,127.20432,12.177077)" />
  <g
     id="g5122"
     transform="matrix(0.35,0,0,0.35,127.20432,12.177077)" />
  <g
     id="g5124"
     transform="matrix(0.35,0,0,0.35,127.20432,12.177077)" />
  <g
     id="g5126"
     transform="matrix(0.35,0,0,0.35,127.20432,12.177077)" />
  <g
     id="g5128"
     transform="matrix(0.35,0,0,0.35,127.20432,12.177077)" />
  <g
     id="g5130"
     transform="matrix(0.35,0,0,0.35,127.20432,12.177077)" />
  <g
     id="g5132"
     transform="matrix(0.35,0,0,0.35,127.20432,12.177077)" />
  <g
     id="g5134"
     transform="matrix(0.35,0,0,0.35,127.20432,12.177077)" />
  <g
     id="g5136"
     transform="matrix(0.35,0,0,0.35,127.20432,12.177077)" />
  <g
     id="g5138"
     transform="matrix(0.35,0,0,0.35,127.20432,12.177077)" />
  <g
     id="g5140"
     transform="matrix(0.35,0,0,0.35,127.20432,12.177077)" />
  <g
     id="g5142"
     transform="matrix(0.35,0,0,0.35,127.20432,12.177077)" />
  <g
     id="g5144"
     transform="matrix(0.35,0,0,0.35,127.20432,12.177077)" />
  <g
     id="g5146"
     transform="matrix(0.35,0,0,0.35,127.20432,12.177077)" />
</svg>
