<?xml version="1.0" encoding="UTF-8" standalone="no"?>
<svg
   xmlns:dc="http://purl.org/dc/elements/1.1/"
   xmlns:cc="http://creativecommons.org/ns#"
   xmlns:rdf="http://www.w3.org/1999/02/22-rdf-syntax-ns#"
   xmlns:svg="http://www.w3.org/2000/svg"
   xmlns="http://www.w3.org/2000/svg"
   width="1080"
   height="1080"
   viewBox="0 0 285.75001 285.75001"
   version="1.1"
   id="svg8">
  <defs
     id="defs2">
    <marker
       style="overflow:visible"
       id="Arrow1Mend"
       refX="0"
       refY="0"
       orient="auto">
      <path
         transform="matrix(-0.4,0,0,-0.4,-4,0)"
         style="fill:#fa8f00;fill-opacity:1;fill-rule:evenodd;stroke:#fa8f00;stroke-width:1.00000003pt;stroke-opacity:1"
         d="M 0,0 5,-5 -12.5,0 5,5 Z"
         id="path5322" />
    </marker>
    <marker
       style="overflow:visible"
       id="Arrow1Mend-4"
       refX="0"
       refY="0"
       orient="auto">
      <path
         transform="matrix(-0.4,0,0,-0.4,-4,0)"
         style="fill:#fa8f00;fill-opacity:1;fill-rule:evenodd;stroke:#fa8f00;stroke-width:1.00000003pt;stroke-opacity:1"
         d="M 0,0 5,-5 -12.5,0 5,5 Z"
         id="path5322-5" />
    </marker>
  </defs>
  <metadata
     id="metadata5">
    <rdf:RDF>
      <cc:Work
         rdf:about="">
        <dc:format>image/svg+xml</dc:format>
        <dc:type
           rdf:resource="http://purl.org/dc/dcmitype/StillImage" />
        <dc:title></dc:title>
      </cc:Work>
    </rdf:RDF>
  </metadata>
  <rect
     style="fill:#c9ebfb;fill-opacity:1;stroke:none;stroke-width:18.2091732;stroke-linecap:round;stroke-miterlimit:4;stroke-dasharray:none;stroke-opacity:1;paint-order:markers stroke fill"
     id="rect7624"
     width="285.75"
     height="285.75"
     x="0.0084436871"
     y="-0.0035707499" />
  <g
     id="g152"
     transform="matrix(1.4552084,0,0,1.4552084,353.40658,-315.79146)" />
  <g
     id="g154"
     transform="matrix(1.4552084,0,0,1.4552084,353.40658,-315.79146)" />
  <g
     id="g156"
     transform="matrix(1.4552084,0,0,1.4552084,353.40658,-315.79146)" />
  <g
     id="g158"
     transform="matrix(1.4552084,0,0,1.4552084,353.40658,-315.79146)" />
  <g
     id="g160"
     transform="matrix(1.4552084,0,0,1.4552084,353.40658,-315.79146)" />
  <g
     id="g162"
     transform="matrix(1.4552084,0,0,1.4552084,353.40658,-315.79146)" />
  <g
     id="g164"
     transform="matrix(1.4552084,0,0,1.4552084,353.40658,-315.79146)" />
  <g
     id="g166"
     transform="matrix(1.4552084,0,0,1.4552084,353.40658,-315.79146)" />
  <g
     id="g168"
     transform="matrix(1.4552084,0,0,1.4552084,353.40658,-315.79146)" />
  <g
     id="g170"
     transform="matrix(1.4552084,0,0,1.4552084,353.40658,-315.79146)" />
  <g
     id="g172"
     transform="matrix(1.4552084,0,0,1.4552084,353.40658,-315.79146)" />
  <g
     id="g174"
     transform="matrix(1.4552084,0,0,1.4552084,353.40658,-315.79146)" />
  <g
     id="g176"
     transform="matrix(1.4552084,0,0,1.4552084,353.40658,-315.79146)" />
  <g
     id="g178"
     transform="matrix(1.4552084,0,0,1.4552084,353.40658,-315.79146)" />
  <g
     id="g180"
     transform="matrix(1.4552084,0,0,1.4552084,353.40658,-315.79146)" />
  <flowRoot
     style="font-style:normal;font-variant:normal;font-weight:500;font-stretch:normal;font-size:40px;line-height:1.25;font-family:Roboto;-inkscape-font-specification:'Roboto Medium';letter-spacing:0px;word-spacing:0px;fill:#000000;fill-opacity:1;stroke:none"
     id="flowRoot1041"
     xml:space="preserve"
     transform="matrix(1.4552084,0,0,1.4552084,353.40658,-315.79146)"><flowRegion
       id="flowRegion1043"><rect
         y="550.21259"
         x="1147.9391"
         height="40.43428"
         width="3.9448078"
         id="rect1045" /></flowRegion><flowPara
       id="flowPara1047" /></flowRoot>  <g
     style="fill:#294270;fill-opacity:1"
     id="g1752"
     transform="matrix(0.8466666,0,0,0.8466666,15.542498,13.27307)">
    <path
       style="fill:#294270;fill-opacity:1"
       id="path1748"
       d="m 149.468,77.394 c -44.435,0 -73.694,25.159 -80.457,80.457 -4.127,33.746 -15.998,88.94 -20.955,111.298 -1.243,5.607 1.945,11.256 7.394,13.073 l 48.379,16.136 c 3.303,1.102 6.93,0.608 9.819,-1.336 2.889,-1.944 4.711,-5.119 4.934,-8.594 l 4.251,-66.347 c 0.293,-4.568 -2.218,-8.856 -6.345,-10.837 L 84.596,195.938 c -4.189,-2.01 -5.955,-7.035 -3.944,-11.224 l 7.592,-15.82 c 0.965,-2.012 2.69,-3.557 4.795,-4.297 2.105,-0.74 4.418,-0.613 6.429,0.353 l 32.174,15.442 c 3.892,1.868 6.367,5.802 6.367,10.119 l 0,41.797 c 0,0.839 0.262,1.658 0.75,2.341 l 7.43,10.401 c 0.756,1.059 1.977,1.687 3.278,1.687 1.301,0 2.521,-0.628 3.278,-1.687 l 7.43,-10.401 c 0.488,-0.683 0.75,-1.502 0.75,-2.341 l 0,-41.798 c 0,-4.317 2.476,-8.251 6.368,-10.119 l 32.174,-15.442 c 2.011,-0.965 4.324,-1.092 6.429,-0.353 2.105,0.74 3.83,2.285 4.795,4.297 l 7.593,15.82 c 2.01,4.189 0.244,9.214 -3.944,11.224 l -31.892,15.306 c -4.127,1.981 -6.637,6.269 -6.345,10.837 l 4.251,66.347 c 0.223,3.475 2.045,6.649 4.934,8.594 2.888,1.944 6.516,2.438 9.819,1.336 l 48.379,-16.136 c 5.459,-1.821 8.639,-7.455 7.394,-13.073 -4.956,-22.359 -16.828,-77.552 -20.955,-111.298 -6.763,-55.297 -36.022,-80.456 -80.457,-80.456 z" />
    <path
       style="fill:#294270;fill-opacity:1"
       id="path1750"
       d="M 259.957,43.655 C 221.728,7.74 170.134,-6.014 121.668,2.391 c -0.95,0.165 -1.624,1.012 -1.567,1.975 l 0.875,14.836 c 0.01,0.168 -0.107,0.318 -0.273,0.348 -0.166,0.031 -0.328,-0.067 -0.379,-0.228 L 115.813,4.985 c -0.277,-0.881 -1.151,-1.432 -2.066,-1.305 -5.355,0.742 -8.924,1.306 -14.283,3.693 -0.785,0.35 -1.235,1.186 -1.097,2.034 l 4.069,24.987 c 0.066,0.404 -0.132,0.805 -0.493,0.998 -0.361,0.193 -0.804,0.136 -1.104,-0.143 L 80.764,16.59 c -0.573,-0.533 -1.416,-0.658 -2.119,-0.315 -14.207,6.92 -27.602,16.047 -39.666,27.38 -0.976,0.917 -1.54,2.19 -1.562,3.53 -0.021,1.34 0.501,2.63 1.449,3.578 l 34.041,34.041 c 1.87,1.87 4.881,1.935 6.834,0.152 39.382,-35.976 100.072,-35.976 139.454,0 1.955,1.786 4.962,1.721 6.834,-0.152 L 260.07,50.763 c 0.947,-0.947 1.468,-2.239 1.447,-3.578 -0.021,-1.34 -0.584,-2.613 -1.56,-3.53 z" />
  </g>
</svg>
