<?xml version="1.0" encoding="UTF-8" standalone="no"?>
<svg
   xmlns:dc="http://purl.org/dc/elements/1.1/"
   xmlns:cc="http://creativecommons.org/ns#"
   xmlns:rdf="http://www.w3.org/1999/02/22-rdf-syntax-ns#"
   xmlns:svg="http://www.w3.org/2000/svg"
   xmlns="http://www.w3.org/2000/svg"
   width="1080"
   height="1080"
   viewBox="0 0 285.75001 285.75001"
   version="1.1"
   id="svg8">
  <defs
     id="defs2">
    <marker
       style="overflow:visible"
       id="Arrow1Mend"
       refX="0"
       refY="0"
       orient="auto">
      <path
         transform="matrix(-0.4,0,0,-0.4,-4,0)"
         style="fill:#fa8f00;fill-opacity:1;fill-rule:evenodd;stroke:#fa8f00;stroke-width:1.00000003pt;stroke-opacity:1"
         d="M 0,0 5,-5 -12.5,0 5,5 Z"
         id="path5322" />
    </marker>
    <marker
       style="overflow:visible"
       id="Arrow1Mend-4"
       refX="0"
       refY="0"
       orient="auto">
      <path
         transform="matrix(-0.4,0,0,-0.4,-4,0)"
         style="fill:#fa8f00;fill-opacity:1;fill-rule:evenodd;stroke:#fa8f00;stroke-width:1.00000003pt;stroke-opacity:1"
         d="M 0,0 5,-5 -12.5,0 5,5 Z"
         id="path5322-5" />
    </marker>
  </defs>
  <metadata
     id="metadata5">
    <rdf:RDF>
      <cc:Work
         rdf:about="">
        <dc:format>image/svg+xml</dc:format>
        <dc:type
           rdf:resource="http://purl.org/dc/dcmitype/StillImage" />
        <dc:title></dc:title>
      </cc:Work>
    </rdf:RDF>
  </metadata>
  <rect
     style="fill:#c9ebfb;fill-opacity:1;stroke:none;stroke-width:18.2091732;stroke-linecap:round;stroke-miterlimit:4;stroke-dasharray:none;stroke-opacity:1;paint-order:markers stroke fill"
     id="rect7624"
     width="285.75"
     height="285.75"
     x="0.0084436871"
     y="-0.0035707499" />
  <g
     id="g152"
     transform="matrix(1.4552084,0,0,1.4552084,353.40658,-315.79146)" />
  <g
     id="g154"
     transform="matrix(1.4552084,0,0,1.4552084,353.40658,-315.79146)" />
  <g
     id="g156"
     transform="matrix(1.4552084,0,0,1.4552084,353.40658,-315.79146)" />
  <g
     id="g158"
     transform="matrix(1.4552084,0,0,1.4552084,353.40658,-315.79146)" />
  <g
     id="g160"
     transform="matrix(1.4552084,0,0,1.4552084,353.40658,-315.79146)" />
  <g
     id="g162"
     transform="matrix(1.4552084,0,0,1.4552084,353.40658,-315.79146)" />
  <g
     id="g164"
     transform="matrix(1.4552084,0,0,1.4552084,353.40658,-315.79146)" />
  <g
     id="g166"
     transform="matrix(1.4552084,0,0,1.4552084,353.40658,-315.79146)" />
  <g
     id="g168"
     transform="matrix(1.4552084,0,0,1.4552084,353.40658,-315.79146)" />
  <g
     id="g170"
     transform="matrix(1.4552084,0,0,1.4552084,353.40658,-315.79146)" />
  <g
     id="g172"
     transform="matrix(1.4552084,0,0,1.4552084,353.40658,-315.79146)" />
  <g
     id="g174"
     transform="matrix(1.4552084,0,0,1.4552084,353.40658,-315.79146)" />
  <g
     id="g176"
     transform="matrix(1.4552084,0,0,1.4552084,353.40658,-315.79146)" />
  <g
     id="g178"
     transform="matrix(1.4552084,0,0,1.4552084,353.40658,-315.79146)" />
  <g
     id="g180"
     transform="matrix(1.4552084,0,0,1.4552084,353.40658,-315.79146)" />
  <flowRoot
     style="font-style:normal;font-variant:normal;font-weight:500;font-stretch:normal;font-size:40px;line-height:1.25;font-family:Roboto;-inkscape-font-specification:'Roboto Medium';letter-spacing:0px;word-spacing:0px;fill:#000000;fill-opacity:1;stroke:none"
     id="flowRoot1041"
     xml:space="preserve"
     transform="matrix(1.4552084,0,0,1.4552084,353.40658,-315.79146)"><flowRegion
       id="flowRegion1043"><rect
         y="550.21259"
         x="1147.9391"
         height="40.43428"
         width="3.9448078"
         id="rect1045" /></flowRegion><flowPara
       id="flowPara1047" /></flowRoot>  <path
     d="m 279.58011,54.251178 c -19.9617,2.98463 -48.6274,0.9584 -70.1078,-10.33926 l 4.0329,-7.09255 c 2.5475,-4.48019 0.982,-10.1772 -3.4986,-12.72474 -4.4848,-2.54939 -10.1781,-0.9797 -12.7247,3.49858 l -3.6181,6.36376 -16.1455,-9.24282 c -3.4995,-2.00303 -8.0001,-0.7797 -10.0022,2.71886 l -18.4736,32.26885 c -2.0021,3.49766 -0.78,8.001 2.7198,10.00217 l 16.2761,9.31876 -25.4578,44.770412 -25.4578,-44.771342 16.2742,-9.3169 c 3.4996,-2.00118 4.7247,-6.50359 2.7217,-10.00218 l -18.4727,-32.26885 c -2.003,-3.49765 -6.5045,-4.72188 -10.0022,-2.71885 l -16.145495,9.24282 -3.6181,-6.36376 c -2.5466,-4.48019 -8.2436,-6.04798 -12.7247,-3.49859 -4.4802,2.54755 -6.0461,8.24455 -3.4986,12.72474 l 4.032,7.09256 c -21.4832,11.2977 -50.1507,13.32388 -70.1096945,10.33925 0,0 -2.3364,20.26364 14.8342995,50.264622 17.177095,29.99911 35.833195,38.24088 35.833195,38.24088 7.6481,-19.00515 23.2112,-42.52105 44.270295,-55.184672 l 31.3298,55.096702 -62.750395,110.35177 c -2.5475,4.4802 -0.982,10.1772 3.4986,12.7247 1.4567,0.829 3.0402,1.2215 4.6043,1.2215 3.2467,0 6.4017,-1.6974 8.1214,-4.721 l 57.259895,-100.6987 57.2609,100.6987 c 1.7187,3.0245 4.8746,4.721 8.1204,4.721 1.5632,0 3.1467,-0.394 4.6043,-1.2215 4.4802,-2.5475 6.0461,-8.2445 3.4986,-12.7247 l -62.7495,-110.35177 31.3289,-55.093922 c 21.06,12.662692 36.6212,36.177672 44.2703,55.181892 0,0 18.657,-8.24177 35.8314,-38.24088 17.1743,-30.001902 14.8342,-50.265542 14.8342,-50.265542 z"
     id="path5116"
     style="fill:#294270;fill-opacity:1" />
</svg>
