<?xml version="1.0" encoding="UTF-8" standalone="no"?>
<svg
   xmlns:dc="http://purl.org/dc/elements/1.1/"
   xmlns:cc="http://creativecommons.org/ns#"
   xmlns:rdf="http://www.w3.org/1999/02/22-rdf-syntax-ns#"
   xmlns:svg="http://www.w3.org/2000/svg"
   xmlns="http://www.w3.org/2000/svg"
   xmlns:sodipodi="http://sodipodi.sourceforge.net/DTD/sodipodi-0.dtd"
   xmlns:inkscape="http://www.inkscape.org/namespaces/inkscape"
   id="svg2451"
   viewBox="0, 0, 128, 128"
   height="128"
   width="128"
   y="0px"
   x="0px"
   version="1.1"
   sodipodi:docname="3_enabled.svg"
   inkscape:version="0.92.3 (3ce5693, 2018-03-11)"
   inkscape:export-filename="/home/xander/2_enabled.png"
   inkscape:export-xdpi="810.00006"
   inkscape:export-ydpi="810.00006">
  <sodipodi:namedview
     pagecolor="#ffffff"
     bordercolor="#666666"
     borderopacity="1"
     objecttolerance="10"
     gridtolerance="10"
     guidetolerance="10"
     inkscape:pageopacity="0"
     inkscape:pageshadow="2"
     inkscape:window-width="1600"
     inkscape:window-height="876"
     id="namedview1076"
     showgrid="false"
     inkscape:zoom="5.6015625"
     inkscape:cx="64"
     inkscape:cy="64"
     inkscape:window-x="0"
     inkscape:window-y="24"
     inkscape:window-maximized="1"
     inkscape:current-layer="svg2451" />
  <metadata
     id="metadata2455">
    <rdf:RDF>
      <cc:Work
         rdf:about="">
        <dc:format>image/svg+xml</dc:format>
        <dc:type
           rdf:resource="http://purl.org/dc/dcmitype/StillImage" />
        <dc:title></dc:title>
      </cc:Work>
    </rdf:RDF>
  </metadata>
  <g
     id="Background">
    <rect
       id="rect2434"
       fill-opacity="0"
       fill="#000000"
       height="128"
       width="128"
       y="0"
       x="0" />
  </g>
  <g
     id="g2447">
    <path
       id="path2437"
       d="M18.092,6 L109.903,6 C116.552,6 122,11.441 122,18.096 L122,109.902 C122,116.559 116.552,122 109.903,122 L18.092,122 C11.436,122 6,116.559 6,109.902 L6,18.096 C6,11.441 11.436,6 18.092,6"
       fill="#737370" />
    <g
       style="fill:#ebeded;fill-opacity:1"
       id="g3681"
       transform="matrix(0.2025,0,0,0.2025,11.313137,17.859557)" />
    <g
       style="fill:#ebeded;fill-opacity:1"
       id="g3683"
       transform="matrix(0.2025,0,0,0.2025,11.313137,17.859557)" />
    <g
       style="fill:#ebeded;fill-opacity:1"
       id="g3685"
       transform="matrix(0.2025,0,0,0.2025,11.313137,17.859557)" />
    <g
       style="fill:#ebeded;fill-opacity:1"
       id="g3687"
       transform="matrix(0.2025,0,0,0.2025,11.313137,17.859557)" />
    <g
       style="fill:#ebeded;fill-opacity:1"
       id="g3689"
       transform="matrix(0.2025,0,0,0.2025,11.313137,17.859557)" />
    <g
       style="fill:#ebeded;fill-opacity:1"
       id="g3691"
       transform="matrix(0.2025,0,0,0.2025,11.313137,17.859557)" />
    <g
       style="fill:#ebeded;fill-opacity:1"
       id="g3693"
       transform="matrix(0.2025,0,0,0.2025,11.313137,17.859557)" />
    <g
       style="fill:#ebeded;fill-opacity:1"
       id="g3695"
       transform="matrix(0.2025,0,0,0.2025,11.313137,17.859557)" />
    <g
       style="fill:#ebeded;fill-opacity:1"
       id="g3697"
       transform="matrix(0.2025,0,0,0.2025,11.313137,17.859557)" />
    <g
       style="fill:#ebeded;fill-opacity:1"
       id="g3699"
       transform="matrix(0.2025,0,0,0.2025,11.313137,17.859557)" />
    <g
       style="fill:#ebeded;fill-opacity:1"
       id="g3701"
       transform="matrix(0.2025,0,0,0.2025,11.313137,17.859557)" />
    <g
       style="fill:#ebeded;fill-opacity:1"
       id="g3703"
       transform="matrix(0.2025,0,0,0.2025,11.313137,17.859557)" />
    <g
       style="fill:#ebeded;fill-opacity:1"
       id="g3705"
       transform="matrix(0.2025,0,0,0.2025,11.313137,17.859557)" />
    <g
       style="fill:#ebeded;fill-opacity:1"
       id="g3707"
       transform="matrix(0.2025,0,0,0.2025,11.313137,17.859557)" />
    <g
       style="fill:#ebeded;fill-opacity:1"
       id="g3709"
       transform="matrix(0.2025,0,0,0.2025,11.313137,17.859557)" />
  </g>
  <defs
     id="defs2449" />
  <g
     transform="matrix(0.25,0,0,0.25,18.736413,19.086772)"
     id="g2503" />
  <g
     transform="matrix(0.25,0,0,0.25,18.736413,19.086772)"
     id="g2505" />
  <g
     transform="matrix(0.25,0,0,0.25,18.736413,19.086772)"
     id="g2507" />
  <g
     transform="matrix(0.25,0,0,0.25,18.736413,19.086772)"
     id="g2509" />
  <g
     transform="matrix(0.25,0,0,0.25,18.736413,19.086772)"
     id="g2511" />
  <g
     transform="matrix(0.25,0,0,0.25,18.736413,19.086772)"
     id="g2513" />
  <g
     transform="matrix(0.25,0,0,0.25,18.736413,19.086772)"
     id="g2515" />
  <g
     transform="matrix(0.25,0,0,0.25,18.736413,19.086772)"
     id="g2517" />
  <g
     transform="matrix(0.25,0,0,0.25,18.736413,19.086772)"
     id="g2519" />
  <g
     transform="matrix(0.25,0,0,0.25,18.736413,19.086772)"
     id="g2521" />
  <g
     transform="matrix(0.25,0,0,0.25,18.736413,19.086772)"
     id="g2523" />
  <g
     transform="matrix(0.25,0,0,0.25,18.736413,19.086772)"
     id="g2525" />
  <g
     transform="matrix(0.25,0,0,0.25,18.736413,19.086772)"
     id="g2527" />
  <g
     transform="matrix(0.25,0,0,0.25,18.736413,19.086772)"
     id="g2529" />
  <g
     transform="matrix(0.25,0,0,0.25,18.736413,19.086772)"
     id="g2531" />
  <g
     transform="matrix(1.7,0,0,1.7,12.390474,12.568995)"
     id="g3272"
     style="fill:#82d1f5;fill-opacity:1">
    <path
       inkscape:connector-curvature="0"
       d="m 51.991,7.982 c -14.628,0 -21.169,-7.566 -21.232,-7.64 -0.38,-0.456 -1.156,-0.456 -1.536,0 -0.064,0.076 -6.537,7.64 -21.232,7.64 -0.552,0 -1,0.448 -1,1 v 19.085 c 0,10.433 4.69,20.348 12.546,26.521 3.167,2.489 6.588,4.29 10.169,5.352 0.093,0.028 0.189,0.042 0.285,0.042 0.096,0 0.191,-0.014 0.285,-0.042 3.581,-1.063 7.002,-2.863 10.169,-5.352 C 48.301,48.414 52.991,38.5 52.991,28.067 V 8.982 c 0,-0.552 -0.448,-1 -1,-1 z m -1,20.085 c 0,9.824 -4.404,19.151 -11.782,24.949 -2.883,2.266 -5.983,3.92 -9.218,4.921 -3.235,-1 -6.335,-2.655 -9.218,-4.921 C 13.395,47.219 8.991,37.891 8.991,28.067 V 9.971 c 12.242,-0.272 18.865,-5.497 21,-7.545 2.135,2.049 8.758,7.273 21,7.545 z"
       id="path3268"
       style="fill:#82d1f5;fill-opacity:1" />
    <path
       inkscape:connector-curvature="0"
       d="m 29.429,7.986 c -3.015,2.049 -8.163,4.689 -15.564,5.633 -0.5,0.064 -0.874,0.489 -0.874,0.992 v 13.457 c 0,8.607 3.833,16.758 10.254,21.804 2.022,1.589 4.169,2.835 6.381,3.703 0.118,0.046 0.241,0.069 0.365,0.069 0.124,0 0.248,-0.023 0.365,-0.069 2.21,-0.867 4.358,-2.113 6.382,-3.703 6.42,-5.046 10.253,-13.197 10.253,-21.804 V 14.611 c 0,-0.503 -0.374,-0.928 -0.874,-0.992 -7.401,-0.944 -12.549,-3.584 -15.564,-5.633 -0.339,-0.231 -0.785,-0.231 -1.124,0 z"
       id="path3270"
       style="fill:#82d1f5;fill-opacity:1" />
  </g>
  <g
     transform="matrix(1.7,0,0,1.7,12.390474,12.568995)"
     id="g3274" />
  <g
     transform="matrix(1.7,0,0,1.7,12.390474,12.568995)"
     id="g3276" />
  <g
     transform="matrix(1.7,0,0,1.7,12.390474,12.568995)"
     id="g3278" />
  <g
     transform="matrix(1.7,0,0,1.7,12.390474,12.568995)"
     id="g3280" />
  <g
     transform="matrix(1.7,0,0,1.7,12.390474,12.568995)"
     id="g3282" />
  <g
     transform="matrix(1.7,0,0,1.7,12.390474,12.568995)"
     id="g3284" />
  <g
     transform="matrix(1.7,0,0,1.7,12.390474,12.568995)"
     id="g3286" />
  <g
     transform="matrix(1.7,0,0,1.7,12.390474,12.568995)"
     id="g3288" />
  <g
     transform="matrix(1.7,0,0,1.7,12.390474,12.568995)"
     id="g3290" />
  <g
     transform="matrix(1.7,0,0,1.7,12.390474,12.568995)"
     id="g3292" />
  <g
     transform="matrix(1.7,0,0,1.7,12.390474,12.568995)"
     id="g3294" />
  <g
     transform="matrix(1.7,0,0,1.7,12.390474,12.568995)"
     id="g3296" />
  <g
     transform="matrix(1.7,0,0,1.7,12.390474,12.568995)"
     id="g3298" />
  <g
     transform="matrix(1.7,0,0,1.7,12.390474,12.568995)"
     id="g3300" />
  <g
     transform="matrix(1.7,0,0,1.7,12.390474,12.568995)"
     id="g3302" />
</svg>
