<?xml version="1.0" encoding="UTF-8" standalone="no"?>
<svg
   xmlns:dc="http://purl.org/dc/elements/1.1/"
   xmlns:cc="http://creativecommons.org/ns#"
   xmlns:rdf="http://www.w3.org/1999/02/22-rdf-syntax-ns#"
   xmlns:svg="http://www.w3.org/2000/svg"
   xmlns="http://www.w3.org/2000/svg"
   width="1080"
   height="1080"
   viewBox="0 0 285.75001 285.75001"
   version="1.1"
   id="svg8">
  <defs
     id="defs2">
    <marker
       style="overflow:visible"
       id="Arrow1Mend"
       refX="0"
       refY="0"
       orient="auto">
      <path
         transform="matrix(-0.4,0,0,-0.4,-4,0)"
         style="fill:#fa8f00;fill-opacity:1;fill-rule:evenodd;stroke:#fa8f00;stroke-width:1.00000003pt;stroke-opacity:1"
         d="M 0,0 5,-5 -12.5,0 5,5 Z"
         id="path5322" />
    </marker>
    <marker
       style="overflow:visible"
       id="Arrow1Mend-4"
       refX="0"
       refY="0"
       orient="auto">
      <path
         transform="matrix(-0.4,0,0,-0.4,-4,0)"
         style="fill:#fa8f00;fill-opacity:1;fill-rule:evenodd;stroke:#fa8f00;stroke-width:1.00000003pt;stroke-opacity:1"
         d="M 0,0 5,-5 -12.5,0 5,5 Z"
         id="path5322-5" />
    </marker>
  </defs>
  <metadata
     id="metadata5">
    <rdf:RDF>
      <cc:Work
         rdf:about="">
        <dc:format>image/svg+xml</dc:format>
        <dc:type
           rdf:resource="http://purl.org/dc/dcmitype/StillImage" />
        <dc:title></dc:title>
      </cc:Work>
    </rdf:RDF>
  </metadata>
  <rect
     style="fill:#c9ebfb;fill-opacity:1;stroke:none;stroke-width:18.2091732;stroke-linecap:round;stroke-miterlimit:4;stroke-dasharray:none;stroke-opacity:1;paint-order:markers stroke fill"
     id="rect7624"
     width="285.75"
     height="285.75"
     x="0.0084436871"
     y="-0.0035707499" />
  <g
     id="g152"
     transform="matrix(1.4552084,0,0,1.4552084,353.40658,-315.79146)" />
  <g
     id="g154"
     transform="matrix(1.4552084,0,0,1.4552084,353.40658,-315.79146)" />
  <g
     id="g156"
     transform="matrix(1.4552084,0,0,1.4552084,353.40658,-315.79146)" />
  <g
     id="g158"
     transform="matrix(1.4552084,0,0,1.4552084,353.40658,-315.79146)" />
  <g
     id="g160"
     transform="matrix(1.4552084,0,0,1.4552084,353.40658,-315.79146)" />
  <g
     id="g162"
     transform="matrix(1.4552084,0,0,1.4552084,353.40658,-315.79146)" />
  <g
     id="g164"
     transform="matrix(1.4552084,0,0,1.4552084,353.40658,-315.79146)" />
  <g
     id="g166"
     transform="matrix(1.4552084,0,0,1.4552084,353.40658,-315.79146)" />
  <g
     id="g168"
     transform="matrix(1.4552084,0,0,1.4552084,353.40658,-315.79146)" />
  <g
     id="g170"
     transform="matrix(1.4552084,0,0,1.4552084,353.40658,-315.79146)" />
  <g
     id="g172"
     transform="matrix(1.4552084,0,0,1.4552084,353.40658,-315.79146)" />
  <g
     id="g174"
     transform="matrix(1.4552084,0,0,1.4552084,353.40658,-315.79146)" />
  <g
     id="g176"
     transform="matrix(1.4552084,0,0,1.4552084,353.40658,-315.79146)" />
  <g
     id="g178"
     transform="matrix(1.4552084,0,0,1.4552084,353.40658,-315.79146)" />
  <g
     id="g180"
     transform="matrix(1.4552084,0,0,1.4552084,353.40658,-315.79146)" />
  <flowRoot
     style="font-style:normal;font-variant:normal;font-weight:500;font-stretch:normal;font-size:40px;line-height:1.25;font-family:Roboto;-inkscape-font-specification:'Roboto Medium';letter-spacing:0px;word-spacing:0px;fill:#000000;fill-opacity:1;stroke:none"
     id="flowRoot1041"
     xml:space="preserve"
     transform="matrix(1.4552084,0,0,1.4552084,353.40658,-315.79146)"><flowRegion
       id="flowRegion1043"><rect
         y="550.21259"
         x="1147.9391"
         height="40.43428"
         width="3.9448078"
         id="rect1045" /></flowRegion><flowPara
       id="flowPara1047" /></flowRoot>  <g
     transform="matrix(0.5291667,0,0,0.5291667,6.8024537,7.4080625)"
     id="g1872"
     style="fill:#294270;fill-opacity:1">
    <g
       id="g1870"
       style="fill:#294270;fill-opacity:1">
      <path
         d="M 507.607,4.394 C 503.194,-0.019 496.509,-1.239 490.822,1.332 L 314.895,80.857 c -5.37,2.428 -8.821,7.775 -8.821,13.669 l 0,90.189 -301.68,301.679 c -5.858,5.857 -5.858,15.355 0,21.213 2.929,2.929 6.767,4.394 10.606,4.394 3.839,0 7.678,-1.464 10.606,-4.394 l 301.68,-301.68 90.189,0 c 5.894,0 11.241,-3.451 13.669,-8.821 L 510.669,21.18 c 2.571,-5.688 1.352,-12.373 -3.062,-16.786 z"
         id="path1868"
         style="fill:#294270;fill-opacity:1" />
    </g>
  </g>
</svg>
