<?xml version="1.0" encoding="UTF-8" standalone="no"?>
<svg
   xmlns:dc="http://purl.org/dc/elements/1.1/"
   xmlns:cc="http://creativecommons.org/ns#"
   xmlns:rdf="http://www.w3.org/1999/02/22-rdf-syntax-ns#"
   xmlns:svg="http://www.w3.org/2000/svg"
   xmlns="http://www.w3.org/2000/svg"
   width="1080"
   height="1080"
   viewBox="0 0 285.75001 285.75001"
   version="1.1"
   id="svg8">
  <defs
     id="defs2">
    <marker
       style="overflow:visible"
       id="Arrow1Mend"
       refX="0"
       refY="0"
       orient="auto">
      <path
         transform="matrix(-0.4,0,0,-0.4,-4,0)"
         style="fill:#fa8f00;fill-opacity:1;fill-rule:evenodd;stroke:#fa8f00;stroke-width:1.00000003pt;stroke-opacity:1"
         d="M 0,0 5,-5 -12.5,0 5,5 Z"
         id="path5322" />
    </marker>
    <marker
       style="overflow:visible"
       id="Arrow1Mend-4"
       refX="0"
       refY="0"
       orient="auto">
      <path
         transform="matrix(-0.4,0,0,-0.4,-4,0)"
         style="fill:#fa8f00;fill-opacity:1;fill-rule:evenodd;stroke:#fa8f00;stroke-width:1.00000003pt;stroke-opacity:1"
         d="M 0,0 5,-5 -12.5,0 5,5 Z"
         id="path5322-5" />
    </marker>
  </defs>
  <metadata
     id="metadata5">
    <rdf:RDF>
      <cc:Work
         rdf:about="">
        <dc:format>image/svg+xml</dc:format>
        <dc:type
           rdf:resource="http://purl.org/dc/dcmitype/StillImage" />
        <dc:title></dc:title>
      </cc:Work>
    </rdf:RDF>
  </metadata>
  <rect
     style="fill:#c9ebfb;fill-opacity:1;stroke:none;stroke-width:18.2091732;stroke-linecap:round;stroke-miterlimit:4;stroke-dasharray:none;stroke-opacity:1;paint-order:markers stroke fill"
     id="rect7624"
     width="285.75"
     height="285.75"
     x="0.0084436871"
     y="-0.0035707499" />
  <g
     id="g152"
     transform="matrix(1.4552084,0,0,1.4552084,353.40658,-315.79146)" />
  <g
     id="g154"
     transform="matrix(1.4552084,0,0,1.4552084,353.40658,-315.79146)" />
  <g
     id="g156"
     transform="matrix(1.4552084,0,0,1.4552084,353.40658,-315.79146)" />
  <g
     id="g158"
     transform="matrix(1.4552084,0,0,1.4552084,353.40658,-315.79146)" />
  <g
     id="g160"
     transform="matrix(1.4552084,0,0,1.4552084,353.40658,-315.79146)" />
  <g
     id="g162"
     transform="matrix(1.4552084,0,0,1.4552084,353.40658,-315.79146)" />
  <g
     id="g164"
     transform="matrix(1.4552084,0,0,1.4552084,353.40658,-315.79146)" />
  <g
     id="g166"
     transform="matrix(1.4552084,0,0,1.4552084,353.40658,-315.79146)" />
  <g
     id="g168"
     transform="matrix(1.4552084,0,0,1.4552084,353.40658,-315.79146)" />
  <g
     id="g170"
     transform="matrix(1.4552084,0,0,1.4552084,353.40658,-315.79146)" />
  <g
     id="g172"
     transform="matrix(1.4552084,0,0,1.4552084,353.40658,-315.79146)" />
  <g
     id="g174"
     transform="matrix(1.4552084,0,0,1.4552084,353.40658,-315.79146)" />
  <g
     id="g176"
     transform="matrix(1.4552084,0,0,1.4552084,353.40658,-315.79146)" />
  <g
     id="g178"
     transform="matrix(1.4552084,0,0,1.4552084,353.40658,-315.79146)" />
  <g
     id="g180"
     transform="matrix(1.4552084,0,0,1.4552084,353.40658,-315.79146)" />
  <flowRoot
     style="font-style:normal;font-variant:normal;font-weight:500;font-stretch:normal;font-size:40px;line-height:1.25;font-family:Roboto;-inkscape-font-specification:'Roboto Medium';letter-spacing:0px;word-spacing:0px;fill:#000000;fill-opacity:1;stroke:none"
     id="flowRoot1041"
     xml:space="preserve"
     transform="matrix(1.4552084,0,0,1.4552084,353.40658,-315.79146)"><flowRegion
       id="flowRegion1043"><rect
         y="550.21259"
         x="1147.9391"
         height="40.43428"
         width="3.9448078"
         id="rect1045" /></flowRegion><flowPara
       id="flowPara1047" /></flowRoot>  <g
     style="fill:#294270;fill-opacity:1"
     id="g3272"
     transform="matrix(4.4979165,0,0,4.4979165,7.6752833,7.6752843)">
    <path
       style="fill:#294270;fill-opacity:1"
       id="path3268"
       d="m 51.991,7.982 c -14.628,0 -21.169,-7.566 -21.232,-7.64 -0.38,-0.456 -1.156,-0.456 -1.536,0 -0.064,0.076 -6.537,7.64 -21.232,7.64 -0.552,0 -1,0.448 -1,1 l 0,19.085 c 0,10.433 4.69,20.348 12.546,26.521 3.167,2.489 6.588,4.29 10.169,5.352 0.093,0.028 0.189,0.042 0.285,0.042 0.096,0 0.191,-0.014 0.285,-0.042 3.581,-1.063 7.002,-2.863 10.169,-5.352 C 48.301,48.414 52.991,38.5 52.991,28.067 l 0,-19.085 c 0,-0.552 -0.448,-1 -1,-1 z m -1,20.085 c 0,9.824 -4.404,19.151 -11.782,24.949 -2.883,2.266 -5.983,3.92 -9.218,4.921 -3.235,-1 -6.335,-2.655 -9.218,-4.921 C 13.395,47.219 8.991,37.891 8.991,28.067 l 0,-18.096 c 12.242,-0.272 18.865,-5.497 21,-7.545 2.135,2.049 8.758,7.273 21,7.545 z" />
    <path
       style="fill:#294270;fill-opacity:1"
       id="path3270"
       d="m 29.429,7.986 c -3.015,2.049 -8.163,4.689 -15.564,5.633 -0.5,0.064 -0.874,0.489 -0.874,0.992 l 0,13.457 c 0,8.607 3.833,16.758 10.254,21.804 2.022,1.589 4.169,2.835 6.381,3.703 0.118,0.046 0.241,0.069 0.365,0.069 0.124,0 0.248,-0.023 0.365,-0.069 2.21,-0.867 4.358,-2.113 6.382,-3.703 6.42,-5.046 10.253,-13.197 10.253,-21.804 l 0,-13.457 c 0,-0.503 -0.374,-0.928 -0.874,-0.992 -7.401,-0.944 -12.549,-3.584 -15.564,-5.633 -0.339,-0.231 -0.785,-0.231 -1.124,0 z" />
  </g>
</svg>
