<?xml version="1.0" encoding="UTF-8" standalone="no"?>
<svg
   xmlns:dc="http://purl.org/dc/elements/1.1/"
   xmlns:cc="http://creativecommons.org/ns#"
   xmlns:rdf="http://www.w3.org/1999/02/22-rdf-syntax-ns#"
   xmlns:svg="http://www.w3.org/2000/svg"
   xmlns="http://www.w3.org/2000/svg"
   xmlns:sodipodi="http://sodipodi.sourceforge.net/DTD/sodipodi-0.dtd"
   xmlns:inkscape="http://www.inkscape.org/namespaces/inkscape"
   id="svg2451"
   viewBox="0, 0, 128, 128"
   height="128"
   width="128"
   y="0px"
   x="0px"
   version="1.1"
   sodipodi:docname="2_disabled.svg"
   inkscape:version="0.92.3 (3ce5693, 2018-03-11)"
   inkscape:export-filename="/home/xander/1_enabled.png"
   inkscape:export-xdpi="810.00006"
   inkscape:export-ydpi="810.00006">
  <sodipodi:namedview
     pagecolor="#ffffff"
     bordercolor="#666666"
     borderopacity="1"
     objecttolerance="10"
     gridtolerance="10"
     guidetolerance="10"
     inkscape:pageopacity="0"
     inkscape:pageshadow="2"
     inkscape:window-width="1600"
     inkscape:window-height="876"
     id="namedview1076"
     showgrid="false"
     inkscape:zoom="5.6015625"
     inkscape:cx="64"
     inkscape:cy="64"
     inkscape:window-x="0"
     inkscape:window-y="24"
     inkscape:window-maximized="1"
     inkscape:current-layer="svg2451" />
  <metadata
     id="metadata2455">
    <rdf:RDF>
      <cc:Work
         rdf:about="">
        <dc:format>image/svg+xml</dc:format>
        <dc:type
           rdf:resource="http://purl.org/dc/dcmitype/StillImage" />
        <dc:title></dc:title>
      </cc:Work>
    </rdf:RDF>
  </metadata>
  <g
     id="Background">
    <rect
       id="rect2434"
       fill-opacity="0"
       fill="#000000"
       height="128"
       width="128"
       y="0"
       x="0" />
  </g>
  <g
     id="g2447">
    <path
       id="path2437"
       d="M18.092,6 L109.903,6 C116.552,6 122,11.441 122,18.096 L122,109.902 C122,116.559 116.552,122 109.903,122 L18.092,122 C11.436,122 6,116.559 6,109.902 L6,18.096 C6,11.441 11.436,6 18.092,6"
       fill="#737370" />
    <g
       style="fill:#ebeded;fill-opacity:1"
       id="g3681"
       transform="matrix(0.2025,0,0,0.2025,11.313137,17.859557)" />
    <g
       style="fill:#ebeded;fill-opacity:1"
       id="g3683"
       transform="matrix(0.2025,0,0,0.2025,11.313137,17.859557)" />
    <g
       style="fill:#ebeded;fill-opacity:1"
       id="g3685"
       transform="matrix(0.2025,0,0,0.2025,11.313137,17.859557)" />
    <g
       style="fill:#ebeded;fill-opacity:1"
       id="g3687"
       transform="matrix(0.2025,0,0,0.2025,11.313137,17.859557)" />
    <g
       style="fill:#ebeded;fill-opacity:1"
       id="g3689"
       transform="matrix(0.2025,0,0,0.2025,11.313137,17.859557)" />
    <g
       style="fill:#ebeded;fill-opacity:1"
       id="g3691"
       transform="matrix(0.2025,0,0,0.2025,11.313137,17.859557)" />
    <g
       style="fill:#ebeded;fill-opacity:1"
       id="g3693"
       transform="matrix(0.2025,0,0,0.2025,11.313137,17.859557)" />
    <g
       style="fill:#ebeded;fill-opacity:1"
       id="g3695"
       transform="matrix(0.2025,0,0,0.2025,11.313137,17.859557)" />
    <g
       style="fill:#ebeded;fill-opacity:1"
       id="g3697"
       transform="matrix(0.2025,0,0,0.2025,11.313137,17.859557)" />
    <g
       style="fill:#ebeded;fill-opacity:1"
       id="g3699"
       transform="matrix(0.2025,0,0,0.2025,11.313137,17.859557)" />
    <g
       style="fill:#ebeded;fill-opacity:1"
       id="g3701"
       transform="matrix(0.2025,0,0,0.2025,11.313137,17.859557)" />
    <g
       style="fill:#ebeded;fill-opacity:1"
       id="g3703"
       transform="matrix(0.2025,0,0,0.2025,11.313137,17.859557)" />
    <g
       style="fill:#ebeded;fill-opacity:1"
       id="g3705"
       transform="matrix(0.2025,0,0,0.2025,11.313137,17.859557)" />
    <g
       style="fill:#ebeded;fill-opacity:1"
       id="g3707"
       transform="matrix(0.2025,0,0,0.2025,11.313137,17.859557)" />
    <g
       style="fill:#ebeded;fill-opacity:1"
       id="g3709"
       transform="matrix(0.2025,0,0,0.2025,11.313137,17.859557)" />
  </g>
  <defs
     id="defs2449" />
  <g
     transform="matrix(0.25,0,0,0.25,18.736413,19.086772)"
     id="g2501"
     style="fill:#ebeded;fill-opacity:1">
    <g
       id="g2499"
       style="fill:#ebeded;fill-opacity:1">
      <path
         inkscape:connector-curvature="0"
         d="m 357.29,315.48 c -0.11,-0.111 -0.22,-0.222 -0.331,-0.331 l -14.08,-13.76 -25.68,-25.84 -19.04,-19.04 16.88,-16.88 c 3.102,-3.12 3.102,-8.16 0,-11.28 l -18.24,-18.24 c -3.12,-3.102 -8.16,-3.102 -11.28,0 l -6.56,6.56 -26.96,-30.16 106.88,-95.68 c 1.596,-1.437 2.547,-3.455 2.64,-5.6 l 3.84,-76.72 c 0.123,-2.264 -0.72,-4.474 -2.32,-6.08 -1.606,-1.6 -3.816,-2.443 -6.08,-2.32 l -76.72,3.76 c -2.145,0.093 -4.163,1.044 -5.6,2.64 L 182.879,109.389 90.959,6.748 C 89.522,5.152 87.504,4.201 85.359,4.108 L 8.639,0.348 c -2.264,-0.123 -4.474,0.72 -6.08,2.32 -1.6,1.606 -2.443,3.816 -2.32,6.08 l 3.84,76.72 c 0.093,2.145 1.044,4.163 2.64,5.6 l 107.04,96 -26.88,29.68 -6.56,-6.56 c -3.12,-3.102 -8.16,-3.102 -11.28,0 l -18.24,18.24 c -3.102,3.12 -3.102,8.16 0,11.28 l 16.88,16.88 -19.12,18.96 -40,40 c -11.443,11.488 -11.407,30.078 0.081,41.521 5.483,5.461 12.9,8.537 20.639,8.559 7.772,0.026 15.232,-3.056 20.72,-8.56 l 58.72,-58.72 16.88,16.88 c 3.12,3.102 8.16,3.102 11.28,0 l 18.24,-18.24 c 3.102,-3.12 3.102,-8.16 0,-11.28 l -6.24,-6.96 34,-30.32 34,30.32 -6.56,6.56 c -3.102,3.12 -3.102,8.16 0,11.28 l 18.24,18.24 c 3.12,3.102 8.16,3.102 11.28,0 l 16.88,-16.88 19.04,19.04 25.76,25.76 13.92,13.92 c 11.374,11.557 29.963,11.705 41.52,0.331 11.557,-11.373 11.705,-29.963 0.331,-41.519 z m -89.851,-87.452 -14.08,14.08 -30.08,-30.08 16.56,-14.8 z m -248,-146.96 -3.2,-64.56 64.56,3.2 90.88,101.6 -18.56,20.72 -33.6,-33.6 c -3.356,-2.874 -8.406,-2.483 -11.28,0.873 -2.565,2.995 -2.565,7.412 0,10.407 l 34.64,34.32 -18.4,20.72 z m 19.12,264 c -2.498,2.514 -5.896,3.925 -9.44,3.92 -7.358,-0.546 -12.881,-6.954 -12.334,-14.312 0.218,-2.943 1.405,-5.73 3.374,-7.928 l 8,-8 18.72,18.48 z m 19.52,-19.52 -18.4,-18.48 14.48,-14.48 18.88,18.88 z m 25.84,-25.84 -18.88,-18.88 13.84,-12.96 18.88,18.88 z m 47.2,-2.16 -16.8,-16.8 -30.16,-30.16 -16.48,-16.56 6.88,-6.88 64,64 z m 6,-30.48 -14.08,-14.08 133.6,-133.6 c 3.356,-2.874 3.747,-7.924 0.873,-11.28 -2.874,-3.356 -7.924,-3.747 -11.28,-0.873 -0.313,0.268 -0.605,0.56 -0.873,0.873 l -133.6,133.6 -14.08,-14.08 32.8,-36.64 154.08,-171.2 64.56,-3.2 -3.2,64.56 -110.56,98.8 z m 57.28,-29.84 17.2,-14.48 30.64,30.64 -14.08,14.08 z m 56,43.44 -16.24,17.28 -6.88,-6.88 64,-64 6.88,6.88 -16.88,16.88 z m 16.96,5.68 19.52,-18.48 13.36,13.36 -18.88,18.88 z m 39.2,39.2 -14.48,-14.48 18.88,-18.88 14.48,14.48 z m 39.04,19.92 -0.64,-0.4 c -5.285,5.039 -13.595,5.039 -18.88,0 l -8,-8 19.28,-18.32 8,8 c 5.17,5.131 5.276,13.458 0.24,18.72 z"
         id="path2497"
         style="fill:#ebeded;fill-opacity:1" />
    </g>
  </g>
  <g
     transform="matrix(0.25,0,0,0.25,18.736413,19.086772)"
     id="g2503" />
  <g
     transform="matrix(0.25,0,0,0.25,18.736413,19.086772)"
     id="g2505" />
  <g
     transform="matrix(0.25,0,0,0.25,18.736413,19.086772)"
     id="g2507" />
  <g
     transform="matrix(0.25,0,0,0.25,18.736413,19.086772)"
     id="g2509" />
  <g
     transform="matrix(0.25,0,0,0.25,18.736413,19.086772)"
     id="g2511" />
  <g
     transform="matrix(0.25,0,0,0.25,18.736413,19.086772)"
     id="g2513" />
  <g
     transform="matrix(0.25,0,0,0.25,18.736413,19.086772)"
     id="g2515" />
  <g
     transform="matrix(0.25,0,0,0.25,18.736413,19.086772)"
     id="g2517" />
  <g
     transform="matrix(0.25,0,0,0.25,18.736413,19.086772)"
     id="g2519" />
  <g
     transform="matrix(0.25,0,0,0.25,18.736413,19.086772)"
     id="g2521" />
  <g
     transform="matrix(0.25,0,0,0.25,18.736413,19.086772)"
     id="g2523" />
  <g
     transform="matrix(0.25,0,0,0.25,18.736413,19.086772)"
     id="g2525" />
  <g
     transform="matrix(0.25,0,0,0.25,18.736413,19.086772)"
     id="g2527" />
  <g
     transform="matrix(0.25,0,0,0.25,18.736413,19.086772)"
     id="g2529" />
  <g
     transform="matrix(0.25,0,0,0.25,18.736413,19.086772)"
     id="g2531" />
</svg>
