<?xml version="1.0" encoding="UTF-8" standalone="no"?>
<svg
   xmlns:dc="http://purl.org/dc/elements/1.1/"
   xmlns:cc="http://creativecommons.org/ns#"
   xmlns:rdf="http://www.w3.org/1999/02/22-rdf-syntax-ns#"
   xmlns:svg="http://www.w3.org/2000/svg"
   xmlns="http://www.w3.org/2000/svg"
   width="1080"
   height="1080"
   viewBox="0 0 285.75001 285.75001"
   version="1.1"
   id="svg8">
  <defs
     id="defs2">
    <marker
       style="overflow:visible"
       id="Arrow1Mend"
       refX="0"
       refY="0"
       orient="auto">
      <path
         transform="matrix(-0.4,0,0,-0.4,-4,0)"
         style="fill:#fa8f00;fill-opacity:1;fill-rule:evenodd;stroke:#fa8f00;stroke-width:1.00000003pt;stroke-opacity:1"
         d="M 0,0 5,-5 -12.5,0 5,5 Z"
         id="path5322" />
    </marker>
    <marker
       style="overflow:visible"
       id="Arrow1Mend-4"
       refX="0"
       refY="0"
       orient="auto">
      <path
         transform="matrix(-0.4,0,0,-0.4,-4,0)"
         style="fill:#fa8f00;fill-opacity:1;fill-rule:evenodd;stroke:#fa8f00;stroke-width:1.00000003pt;stroke-opacity:1"
         d="M 0,0 5,-5 -12.5,0 5,5 Z"
         id="path5322-5" />
    </marker>
  </defs>
  <metadata
     id="metadata5">
    <rdf:RDF>
      <cc:Work
         rdf:about="">
        <dc:format>image/svg+xml</dc:format>
        <dc:type
           rdf:resource="http://purl.org/dc/dcmitype/StillImage" />
        <dc:title></dc:title>
      </cc:Work>
    </rdf:RDF>
  </metadata>
  <rect
     style="fill:#c9ebfb;fill-opacity:1;stroke:none;stroke-width:18.2091732;stroke-linecap:round;stroke-miterlimit:4;stroke-dasharray:none;stroke-opacity:1;paint-order:markers stroke fill"
     id="rect7624"
     width="285.75"
     height="285.75"
     x="0.0084436871"
     y="-0.0035707499" />
  <g
     id="g152"
     transform="matrix(1.4552084,0,0,1.4552084,353.40658,-315.79146)" />
  <g
     id="g154"
     transform="matrix(1.4552084,0,0,1.4552084,353.40658,-315.79146)" />
  <g
     id="g156"
     transform="matrix(1.4552084,0,0,1.4552084,353.40658,-315.79146)" />
  <g
     id="g158"
     transform="matrix(1.4552084,0,0,1.4552084,353.40658,-315.79146)" />
  <g
     id="g160"
     transform="matrix(1.4552084,0,0,1.4552084,353.40658,-315.79146)" />
  <g
     id="g162"
     transform="matrix(1.4552084,0,0,1.4552084,353.40658,-315.79146)" />
  <g
     id="g164"
     transform="matrix(1.4552084,0,0,1.4552084,353.40658,-315.79146)" />
  <g
     id="g166"
     transform="matrix(1.4552084,0,0,1.4552084,353.40658,-315.79146)" />
  <g
     id="g168"
     transform="matrix(1.4552084,0,0,1.4552084,353.40658,-315.79146)" />
  <g
     id="g170"
     transform="matrix(1.4552084,0,0,1.4552084,353.40658,-315.79146)" />
  <g
     id="g172"
     transform="matrix(1.4552084,0,0,1.4552084,353.40658,-315.79146)" />
  <g
     id="g174"
     transform="matrix(1.4552084,0,0,1.4552084,353.40658,-315.79146)" />
  <g
     id="g176"
     transform="matrix(1.4552084,0,0,1.4552084,353.40658,-315.79146)" />
  <g
     id="g178"
     transform="matrix(1.4552084,0,0,1.4552084,353.40658,-315.79146)" />
  <g
     id="g180"
     transform="matrix(1.4552084,0,0,1.4552084,353.40658,-315.79146)" />
  <flowRoot
     style="font-style:normal;font-variant:normal;font-weight:500;font-stretch:normal;font-size:40px;line-height:1.25;font-family:Roboto;-inkscape-font-specification:'Roboto Medium';letter-spacing:0px;word-spacing:0px;fill:#000000;fill-opacity:1;stroke:none"
     id="flowRoot1041"
     xml:space="preserve"
     transform="matrix(1.4552084,0,0,1.4552084,353.40658,-315.79146)"><flowRegion
       id="flowRegion1043"><rect
         y="550.21259"
         x="1147.9391"
         height="40.43428"
         width="3.9448078"
         id="rect1045" /></flowRegion><flowPara
       id="flowPara1047" /></flowRoot>  <g
     id="g6726"
     transform="matrix(0.5291667,0,0,0.5291667,7.4467126,7.434419)"
     style="fill:#294270;fill-opacity:1">
    <g
       id="g6728"
       style="fill:#294270;fill-opacity:1">
      <circle
         id="circle6730"
         r="64"
         cy="64.004997"
         cx="255.99899"
         style="fill:#294270;fill-opacity:1" />
    </g>
  </g>
  <g
     id="g6732"
     transform="matrix(0.5291667,0,0,0.5291667,7.4467126,7.434419)"
     style="fill:#294270;fill-opacity:1">
    <g
       id="g6734"
       style="fill:#294270;fill-opacity:1">
      <path
         id="path6736"
         d="M 351.871,301.957 337.343,188.805 c -1.632,-16.416 -15.328,-28.8 -31.808,-28.8 l -17.536,0 c -4.256,0 -8.32,1.696 -11.328,4.672 l -20.672,20.672 -20.672,-20.672 c -3.008,-2.976 -7.072,-4.672 -11.328,-4.672 l -17.504,0 c -16.512,0 -30.208,12.384 -31.808,28.384 l -14.56,113.6 c -0.576,4.544 0.832,9.152 3.872,12.576 3.04,3.456 7.392,5.44 12,5.44 l 17.28,0 13.376,163.2 c 1.6,16.384 15.328,28.8 31.84,28.8 l 35.04,0 c 16.512,0 30.208,-12.416 31.872,-29.088 l 13.344,-162.912 17.248,0 c 4.608,0 8.96,-1.984 12,-5.44 3.072,-3.424 4.48,-8.032 3.872,-12.608 z"
         style="fill:#294270;fill-opacity:1" />
    </g>
  </g>
  <g
     id="g6738"
     transform="matrix(0.5291667,0,0,0.5291667,7.4467126,7.434419)"
     style="fill:#294270;fill-opacity:1">
    <g
       id="g6740"
       style="fill:#294270;fill-opacity:1">
      <circle
         id="circle6742"
         r="64"
         cy="64.004997"
         cx="415.99899"
         style="fill:#294270;fill-opacity:1" />
    </g>
  </g>
  <g
     id="g6744"
     transform="matrix(0.5291667,0,0,0.5291667,7.4467126,7.434419)"
     style="fill:#294270;fill-opacity:1">
    <g
       id="g6746"
       style="fill:#294270;fill-opacity:1">
      <path
         id="path6748"
         d="m 95.999,0.005 c -35.296,0 -64,28.704 -64,64 0,35.296 28.704,64 64,64 35.264,0 64,-28.704 64,-64 0,-35.296 -28.736,-64 -64,-64 z"
         style="fill:#294270;fill-opacity:1" />
    </g>
  </g>
  <g
     id="g6750"
     transform="matrix(0.5291667,0,0,0.5291667,7.4467126,7.434419)"
     style="fill:#294270;fill-opacity:1">
    <g
       id="g6752"
       style="fill:#294270;fill-opacity:1">
      <path
         id="path6754"
         d="m 511.871,301.957 -14.528,-113.12 c -1.632,-16.448 -15.296,-28.832 -31.808,-28.832 l -17.536,0 c -4.256,0 -8.32,1.696 -11.328,4.672 l -20.672,20.672 -20.672,-20.672 c -3.008,-2.976 -7.072,-4.672 -11.296,-4.672 l -17.536,0 c -1.984,0 -3.776,0.704 -5.664,1.056 4.128,7.296 7.36,15.2 8.32,24.064 l 14.496,112.768 c 1.792,13.728 -2.496,27.552 -11.712,37.952 -4.352,4.992 -9.92,8.512 -15.872,11.264 l 10.624,104.096 c 1.632,16.416 15.328,28.8 31.84,28.8 l 35.04,0 c 16.512,0 30.208,-12.416 31.872,-29.088 l 13.312,-130.912 17.248,0 c 4.608,0 8.96,-1.984 12,-5.44 3.072,-3.424 4.48,-8.032 3.872,-12.608 z"
         style="fill:#294270;fill-opacity:1" />
    </g>
  </g>
  <g
     id="g6756"
     transform="matrix(0.5291667,0,0,0.5291667,7.4467126,7.434419)"
     style="fill:#294270;fill-opacity:1">
    <g
       id="g6758"
       style="fill:#294270;fill-opacity:1">
      <path
         id="path6760"
         d="m 139.967,335.685 c -9.088,-10.272 -13.312,-24.064 -11.584,-37.728 l 14.56,-113.632 c 0.832,-8.512 3.968,-16.192 7.968,-23.296 -1.792,-0.32 -3.488,-1.024 -5.376,-1.024 l -17.536,0 c -4.256,0 -8.32,1.696 -11.328,4.672 L 95.999,185.349 75.327,164.677 c -3.008,-2.976 -7.072,-4.672 -11.296,-4.672 l -17.537,0 c -16.512,0 -30.208,12.384 -31.808,28.384 l -14.56,113.6 c -0.576,4.544 0.832,9.152 3.872,12.576 3.04,3.456 7.424,5.44 12,5.44 l 17.28,0 13.376,131.2 c 1.6,16.384 15.328,28.8 31.84,28.8 l 35.04,0 c 16.512,0 30.208,-12.416 31.872,-29.088 l 10.624,-103.84 c -5.983,-2.784 -11.583,-6.336 -16.063,-11.392 z"
         style="fill:#294270;fill-opacity:1" />
    </g>
  </g>
</svg>
