<?xml version="1.0" encoding="UTF-8" standalone="no"?>
<svg
   xmlns:dc="http://purl.org/dc/elements/1.1/"
   xmlns:cc="http://creativecommons.org/ns#"
   xmlns:rdf="http://www.w3.org/1999/02/22-rdf-syntax-ns#"
   xmlns:svg="http://www.w3.org/2000/svg"
   xmlns="http://www.w3.org/2000/svg"
   xmlns:sodipodi="http://sodipodi.sourceforge.net/DTD/sodipodi-0.dtd"
   xmlns:inkscape="http://www.inkscape.org/namespaces/inkscape"
   id="svg2451"
   viewBox="0, 0, 128, 128"
   height="128"
   width="128"
   y="0px"
   x="0px"
   version="1.1"
   sodipodi:docname="4_enabled.svg"
   inkscape:version="0.92.3 (3ce5693, 2018-03-11)"
   inkscape:export-filename="/home/xander/4_disabled.png"
   inkscape:export-xdpi="810.00006"
   inkscape:export-ydpi="810.00006">
  <sodipodi:namedview
     pagecolor="#ffffff"
     bordercolor="#666666"
     borderopacity="1"
     objecttolerance="10"
     gridtolerance="10"
     guidetolerance="10"
     inkscape:pageopacity="0"
     inkscape:pageshadow="2"
     inkscape:window-width="1600"
     inkscape:window-height="876"
     id="namedview1076"
     showgrid="false"
     inkscape:zoom="3.9609028"
     inkscape:cx="19.792902"
     inkscape:cy="58.833506"
     inkscape:window-x="0"
     inkscape:window-y="24"
     inkscape:window-maximized="1"
     inkscape:current-layer="svg2451" />
  <metadata
     id="metadata2455">
    <rdf:RDF>
      <cc:Work
         rdf:about="">
        <dc:format>image/svg+xml</dc:format>
        <dc:type
           rdf:resource="http://purl.org/dc/dcmitype/StillImage" />
        <dc:title></dc:title>
      </cc:Work>
    </rdf:RDF>
  </metadata>
  <g
     id="Background">
    <rect
       id="rect2434"
       fill-opacity="0"
       fill="#000000"
       height="128"
       width="128"
       y="0"
       x="0" />
  </g>
  <g
     id="g2447">
    <path
       id="path2437"
       d="M18.092,6 L109.903,6 C116.552,6 122,11.441 122,18.096 L122,109.902 C122,116.559 116.552,122 109.903,122 L18.092,122 C11.436,122 6,116.559 6,109.902 L6,18.096 C6,11.441 11.436,6 18.092,6"
       fill="#737370" />
    <g
       style="fill:#ebeded;fill-opacity:1"
       id="g3681"
       transform="matrix(0.2025,0,0,0.2025,11.313137,17.859557)" />
    <g
       style="fill:#ebeded;fill-opacity:1"
       id="g3683"
       transform="matrix(0.2025,0,0,0.2025,11.313137,17.859557)" />
    <g
       style="fill:#ebeded;fill-opacity:1"
       id="g3685"
       transform="matrix(0.2025,0,0,0.2025,11.313137,17.859557)" />
    <g
       style="fill:#ebeded;fill-opacity:1"
       id="g3687"
       transform="matrix(0.2025,0,0,0.2025,11.313137,17.859557)" />
    <g
       style="fill:#ebeded;fill-opacity:1"
       id="g3689"
       transform="matrix(0.2025,0,0,0.2025,11.313137,17.859557)" />
    <g
       style="fill:#ebeded;fill-opacity:1"
       id="g3691"
       transform="matrix(0.2025,0,0,0.2025,11.313137,17.859557)" />
    <g
       style="fill:#ebeded;fill-opacity:1"
       id="g3693"
       transform="matrix(0.2025,0,0,0.2025,11.313137,17.859557)" />
    <g
       style="fill:#ebeded;fill-opacity:1"
       id="g3695"
       transform="matrix(0.2025,0,0,0.2025,11.313137,17.859557)" />
    <g
       style="fill:#ebeded;fill-opacity:1"
       id="g3697"
       transform="matrix(0.2025,0,0,0.2025,11.313137,17.859557)" />
    <g
       style="fill:#ebeded;fill-opacity:1"
       id="g3699"
       transform="matrix(0.2025,0,0,0.2025,11.313137,17.859557)" />
    <g
       style="fill:#ebeded;fill-opacity:1"
       id="g3701"
       transform="matrix(0.2025,0,0,0.2025,11.313137,17.859557)" />
    <g
       style="fill:#ebeded;fill-opacity:1"
       id="g3703"
       transform="matrix(0.2025,0,0,0.2025,11.313137,17.859557)" />
    <g
       style="fill:#ebeded;fill-opacity:1"
       id="g3705"
       transform="matrix(0.2025,0,0,0.2025,11.313137,17.859557)" />
    <g
       style="fill:#ebeded;fill-opacity:1"
       id="g3707"
       transform="matrix(0.2025,0,0,0.2025,11.313137,17.859557)" />
    <g
       style="fill:#ebeded;fill-opacity:1"
       id="g3709"
       transform="matrix(0.2025,0,0,0.2025,11.313137,17.859557)" />
  </g>
  <defs
     id="defs2449" />
  <g
     transform="matrix(0.25,0,0,0.25,18.736413,19.086772)"
     id="g2503" />
  <g
     transform="matrix(0.25,0,0,0.25,18.736413,19.086772)"
     id="g2505" />
  <g
     transform="matrix(0.25,0,0,0.25,18.736413,19.086772)"
     id="g2507" />
  <g
     transform="matrix(0.25,0,0,0.25,18.736413,19.086772)"
     id="g2509" />
  <g
     transform="matrix(0.25,0,0,0.25,18.736413,19.086772)"
     id="g2511" />
  <g
     transform="matrix(0.25,0,0,0.25,18.736413,19.086772)"
     id="g2513" />
  <g
     transform="matrix(0.25,0,0,0.25,18.736413,19.086772)"
     id="g2515" />
  <g
     transform="matrix(0.25,0,0,0.25,18.736413,19.086772)"
     id="g2517" />
  <g
     transform="matrix(0.25,0,0,0.25,18.736413,19.086772)"
     id="g2519" />
  <g
     transform="matrix(0.25,0,0,0.25,18.736413,19.086772)"
     id="g2521" />
  <g
     transform="matrix(0.25,0,0,0.25,18.736413,19.086772)"
     id="g2523" />
  <g
     transform="matrix(0.25,0,0,0.25,18.736413,19.086772)"
     id="g2525" />
  <g
     transform="matrix(0.25,0,0,0.25,18.736413,19.086772)"
     id="g2527" />
  <g
     transform="matrix(0.25,0,0,0.25,18.736413,19.086772)"
     id="g2529" />
  <g
     transform="matrix(0.25,0,0,0.25,18.736413,19.086772)"
     id="g2531" />
  <g
     transform="matrix(1.7,0,0,1.7,12.390474,12.568995)"
     id="g3274" />
  <g
     transform="matrix(1.7,0,0,1.7,12.390474,12.568995)"
     id="g3276" />
  <g
     transform="matrix(1.7,0,0,1.7,12.390474,12.568995)"
     id="g3278" />
  <g
     transform="matrix(1.7,0,0,1.7,12.390474,12.568995)"
     id="g3280" />
  <g
     transform="matrix(1.7,0,0,1.7,12.390474,12.568995)"
     id="g3282" />
  <g
     transform="matrix(1.7,0,0,1.7,12.390474,12.568995)"
     id="g3284" />
  <g
     transform="matrix(1.7,0,0,1.7,12.390474,12.568995)"
     id="g3286" />
  <g
     transform="matrix(1.7,0,0,1.7,12.390474,12.568995)"
     id="g3288" />
  <g
     transform="matrix(1.7,0,0,1.7,12.390474,12.568995)"
     id="g3290" />
  <g
     transform="matrix(1.7,0,0,1.7,12.390474,12.568995)"
     id="g3292" />
  <g
     transform="matrix(1.7,0,0,1.7,12.390474,12.568995)"
     id="g3294" />
  <g
     transform="matrix(1.7,0,0,1.7,12.390474,12.568995)"
     id="g3296" />
  <g
     transform="matrix(1.7,0,0,1.7,12.390474,12.568995)"
     id="g3298" />
  <g
     transform="matrix(1.7,0,0,1.7,12.390474,12.568995)"
     id="g3300" />
  <g
     transform="matrix(1.7,0,0,1.7,12.390474,12.568995)"
     id="g3302" />
  <g
     transform="matrix(0.2125,0,0,0.2125,9.6587481,11.989923)"
     id="g4061"
     style="fill:#82d1f5;fill-opacity:1">
    <g
       id="g4059"
       style="fill:#82d1f5;fill-opacity:1">
      <path
         inkscape:connector-curvature="0"
         d="m 511.378,217.206 c -1.265,-3.054 -4.244,-5.044 -7.548,-5.044 -29.888,0 -55.029,-19.277 -81.647,-39.687 C 393.666,150.61 364.179,128 326.475,128 c -23.884,0 -36.296,7.902 -46.271,14.252 C 272.529,147.139 266.466,151 256,151 245.535,151 239.472,147.14 231.795,142.252 221.821,135.902 209.409,128 185.524,128 c -37.704,0 -67.191,22.61 -95.708,44.475 -26.617,20.409 -51.759,39.687 -81.647,39.687 -3.305,0 -6.283,1.99 -7.548,5.044 -1.265,3.053 -0.565,6.567 1.771,8.903 9.554,9.555 20.676,14.91 34.49,16.525 5.252,48.188 23.754,82.876 38.732,103.807 17.148,23.964 33.367,35.575 34.049,36.058 1.406,0.996 3.059,1.5 4.719,1.5 1.283,0 2.572,-0.302 3.754,-0.914 2.713,-1.404 4.415,-4.203 4.415,-7.256 v -65.753 c 38.96,27.125 85.737,41.916 133.447,41.916 47.71,0 94.487,-14.791 133.447,-41.916 v 65.754 c 0,3.054 1.703,5.853 4.415,7.256 1.182,0.612 2.471,0.914 3.754,0.914 1.66,0 3.314,-0.505 4.719,-1.5 0.682,-0.483 16.901,-12.094 34.049,-36.058 14.979,-20.931 33.479,-55.621 38.732,-103.809 13.815,-1.614 24.937,-6.971 34.49,-16.525 2.339,-2.336 3.039,-5.849 1.774,-8.902 z M 106.214,357.603 C 89.15,340.166 60.416,302.662 53.367,242.914 c 11.872,-0.8 24.567,-3.415 37.88,-6.163 4.827,-0.997 9.824,-2.026 14.967,-3.008 z M 389.449,289.792 C 351.484,319.39 304.256,335.653 256,335.653 c -48.254,0 -95.485,-16.263 -133.447,-45.862 v -58.826 c 10.049,-1.462 20.548,-2.463 31.4,-2.463 20.014,0 33.889,8.582 48.58,17.669 15.235,9.423 30.988,19.167 53.468,19.167 22.48,0 38.233,-9.744 53.468,-19.167 14.69,-9.086 28.566,-17.669 48.58,-17.669 10.852,0 21.35,1.002 31.4,2.463 z m 34.069,46.551 c -6.338,8.931 -12.565,16.01 -17.73,21.274 V 233.742 c 5.142,0.982 10.138,2.011 14.963,3.008 13.32,2.75 26.019,5.366 37.898,6.165 -5.123,43.29 -21.69,74.488 -35.131,93.428 z m 42.166,-109.516 c -12.179,0 -25.827,-2.817 -41.628,-6.08 -7.842,-1.62 -16.113,-3.321 -24.78,-4.782 -0.026,-0.005 -0.053,-0.009 -0.081,-0.013 -12.85,-2.164 -26.579,-3.79 -41.147,-3.79 -24.659,0 -41.934,10.686 -57.175,20.113 -13.905,8.601 -27.037,16.724 -44.872,16.724 -17.835,0 -30.967,-8.123 -44.872,-16.724 -15.241,-9.427 -32.516,-20.113 -57.175,-20.113 -14.575,0 -28.31,1.628 -41.165,3.792 -0.02,0.003 -0.04,0.005 -0.06,0.01 -8.669,1.461 -16.942,3.164 -24.785,4.782 -15.801,3.263 -29.449,6.08 -41.626,6.081 -5.246,0 -9.935,-0.539 -14.197,-1.667 24.867,-6.922 46.528,-23.53 67.64,-39.717 27.567,-21.137 53.605,-41.102 85.764,-41.102 19.124,0 28.048,5.681 37.495,11.696 8.729,5.557 17.755,11.303 32.98,11.303 15.225,0 24.251,-5.746 32.98,-11.303 9.447,-6.014 18.371,-11.696 37.495,-11.696 32.16,0 58.198,19.965 85.764,41.102 21.112,16.187 42.773,32.795 67.64,39.717 -4.26,1.128 -8.949,1.667 -14.195,1.667 z"
         id="path4057"
         style="fill:#82d1f5;fill-opacity:1" />
    </g>
  </g>
  <g
     transform="matrix(0.2125,0,0,0.2125,9.1538127,17.544212)"
     id="g4069" />
  <g
     transform="matrix(0.2125,0,0,0.2125,9.1538127,17.544212)"
     id="g4071" />
  <g
     transform="matrix(0.2125,0,0,0.2125,9.1538127,17.544212)"
     id="g4073" />
  <g
     transform="matrix(0.2125,0,0,0.2125,9.1538127,17.544212)"
     id="g4075" />
  <g
     transform="matrix(0.2125,0,0,0.2125,9.1538127,17.544212)"
     id="g4077" />
  <g
     transform="matrix(0.2125,0,0,0.2125,9.1538127,17.544212)"
     id="g4079" />
  <g
     transform="matrix(0.2125,0,0,0.2125,9.1538127,17.544212)"
     id="g4081" />
  <g
     transform="matrix(0.2125,0,0,0.2125,9.1538127,17.544212)"
     id="g4083" />
  <g
     transform="matrix(0.2125,0,0,0.2125,9.1538127,17.544212)"
     id="g4085" />
  <g
     transform="matrix(0.2125,0,0,0.2125,9.1538127,17.544212)"
     id="g4087" />
  <g
     transform="matrix(0.2125,0,0,0.2125,9.1538127,17.544212)"
     id="g4089" />
  <g
     transform="matrix(0.2125,0,0,0.2125,9.1538127,17.544212)"
     id="g4091" />
  <g
     transform="matrix(0.2125,0,0,0.2125,9.1538127,17.544212)"
     id="g4093" />
  <g
     transform="matrix(0.2125,0,0,0.2125,9.1538127,17.544212)"
     id="g4095" />
  <g
     transform="matrix(0.2125,0,0,0.2125,9.1538127,17.544212)"
     id="g4097" />
</svg>
