<?xml version="1.0" encoding="UTF-8" standalone="no"?>
<svg
   xmlns:dc="http://purl.org/dc/elements/1.1/"
   xmlns:cc="http://creativecommons.org/ns#"
   xmlns:rdf="http://www.w3.org/1999/02/22-rdf-syntax-ns#"
   xmlns:svg="http://www.w3.org/2000/svg"
   xmlns="http://www.w3.org/2000/svg"
   width="1080"
   height="1080"
   viewBox="0 0 285.75001 285.75001"
   version="1.1"
   id="svg8">
  <defs
     id="defs2">
    <marker
       style="overflow:visible"
       id="Arrow1Mend"
       refX="0"
       refY="0"
       orient="auto">
      <path
         transform="matrix(-0.4,0,0,-0.4,-4,0)"
         style="fill:#fa8f00;fill-opacity:1;fill-rule:evenodd;stroke:#fa8f00;stroke-width:1.00000003pt;stroke-opacity:1"
         d="M 0,0 5,-5 -12.5,0 5,5 Z"
         id="path5322" />
    </marker>
    <marker
       style="overflow:visible"
       id="Arrow1Mend-4"
       refX="0"
       refY="0"
       orient="auto">
      <path
         transform="matrix(-0.4,0,0,-0.4,-4,0)"
         style="fill:#fa8f00;fill-opacity:1;fill-rule:evenodd;stroke:#fa8f00;stroke-width:1.00000003pt;stroke-opacity:1"
         d="M 0,0 5,-5 -12.5,0 5,5 Z"
         id="path5322-5" />
    </marker>
  </defs>
  <metadata
     id="metadata5">
    <rdf:RDF>
      <cc:Work
         rdf:about="">
        <dc:format>image/svg+xml</dc:format>
        <dc:type
           rdf:resource="http://purl.org/dc/dcmitype/StillImage" />
        <dc:title></dc:title>
      </cc:Work>
    </rdf:RDF>
  </metadata>
  <rect
     style="fill:#c9ebfb;fill-opacity:1;stroke:none;stroke-width:18.2091732;stroke-linecap:round;stroke-miterlimit:4;stroke-dasharray:none;stroke-opacity:1;paint-order:markers stroke fill"
     id="rect7624"
     width="285.75"
     height="285.75"
     x="0.0084436871"
     y="-0.0035707499" />
  <g
     id="g152"
     transform="matrix(1.4552084,0,0,1.4552084,353.40658,-315.79146)" />
  <g
     id="g154"
     transform="matrix(1.4552084,0,0,1.4552084,353.40658,-315.79146)" />
  <g
     id="g156"
     transform="matrix(1.4552084,0,0,1.4552084,353.40658,-315.79146)" />
  <g
     id="g158"
     transform="matrix(1.4552084,0,0,1.4552084,353.40658,-315.79146)" />
  <g
     id="g160"
     transform="matrix(1.4552084,0,0,1.4552084,353.40658,-315.79146)" />
  <g
     id="g162"
     transform="matrix(1.4552084,0,0,1.4552084,353.40658,-315.79146)" />
  <g
     id="g164"
     transform="matrix(1.4552084,0,0,1.4552084,353.40658,-315.79146)" />
  <g
     id="g166"
     transform="matrix(1.4552084,0,0,1.4552084,353.40658,-315.79146)" />
  <g
     id="g168"
     transform="matrix(1.4552084,0,0,1.4552084,353.40658,-315.79146)" />
  <g
     id="g170"
     transform="matrix(1.4552084,0,0,1.4552084,353.40658,-315.79146)" />
  <g
     id="g172"
     transform="matrix(1.4552084,0,0,1.4552084,353.40658,-315.79146)" />
  <g
     id="g174"
     transform="matrix(1.4552084,0,0,1.4552084,353.40658,-315.79146)" />
  <g
     id="g176"
     transform="matrix(1.4552084,0,0,1.4552084,353.40658,-315.79146)" />
  <g
     id="g178"
     transform="matrix(1.4552084,0,0,1.4552084,353.40658,-315.79146)" />
  <g
     id="g180"
     transform="matrix(1.4552084,0,0,1.4552084,353.40658,-315.79146)" />
  <flowRoot
     style="font-style:normal;font-variant:normal;font-weight:500;font-stretch:normal;font-size:40px;line-height:1.25;font-family:Roboto;-inkscape-font-specification:'Roboto Medium';letter-spacing:0px;word-spacing:0px;fill:#000000;fill-opacity:1;stroke:none"
     id="flowRoot1041"
     xml:space="preserve"
     transform="matrix(1.4552084,0,0,1.4552084,353.40658,-315.79146)"><flowRegion
       id="flowRegion1043"><rect
         y="550.21259"
         x="1147.9391"
         height="40.43428"
         width="3.9448078"
         id="rect1045" /></flowRegion><flowPara
       id="flowPara1047" /></flowRoot>  <g
     style="fill:#294270;fill-opacity:1"
     id="g4061"
     transform="matrix(0.50601564,0,0,0.50601564,14.264889,19.138252)">
    <g
       style="fill:#294270;fill-opacity:1"
       id="g4059">
      <path
         style="fill:#294270;fill-opacity:1"
         id="path4057"
         d="m 511.378,217.206 c -1.265,-3.054 -4.244,-5.044 -7.548,-5.044 -29.888,0 -55.029,-19.277 -81.647,-39.687 C 393.666,150.61 364.179,128 326.475,128 c -23.884,0 -36.296,7.902 -46.271,14.252 C 272.529,147.139 266.466,151 256,151 245.535,151 239.472,147.14 231.795,142.252 221.821,135.902 209.409,128 185.524,128 c -37.704,0 -67.191,22.61 -95.708,44.475 -26.617,20.409 -51.759,39.687 -81.647,39.687 -3.305,0 -6.283,1.99 -7.548,5.044 -1.265,3.053 -0.565,6.567 1.771,8.903 9.554,9.555 20.676,14.91 34.49,16.525 5.252,48.188 23.754,82.876 38.732,103.807 17.148,23.964 33.367,35.575 34.049,36.058 1.406,0.996 3.059,1.5 4.719,1.5 1.283,0 2.572,-0.302 3.754,-0.914 2.713,-1.404 4.415,-4.203 4.415,-7.256 l 0,-65.753 c 38.96,27.125 85.737,41.916 133.447,41.916 47.71,0 94.487,-14.791 133.447,-41.916 l 0,65.754 c 0,3.054 1.703,5.853 4.415,7.256 1.182,0.612 2.471,0.914 3.754,0.914 1.66,0 3.314,-0.505 4.719,-1.5 0.682,-0.483 16.901,-12.094 34.049,-36.058 14.979,-20.931 33.479,-55.621 38.732,-103.809 13.815,-1.614 24.937,-6.971 34.49,-16.525 2.339,-2.336 3.039,-5.849 1.774,-8.902 z M 106.214,357.603 C 89.15,340.166 60.416,302.662 53.367,242.914 c 11.872,-0.8 24.567,-3.415 37.88,-6.163 4.827,-0.997 9.824,-2.026 14.967,-3.008 z M 389.449,289.792 C 351.484,319.39 304.256,335.653 256,335.653 c -48.254,0 -95.485,-16.263 -133.447,-45.862 l 0,-58.826 c 10.049,-1.462 20.548,-2.463 31.4,-2.463 20.014,0 33.889,8.582 48.58,17.669 15.235,9.423 30.988,19.167 53.468,19.167 22.48,0 38.233,-9.744 53.468,-19.167 14.69,-9.086 28.566,-17.669 48.58,-17.669 10.852,0 21.35,1.002 31.4,2.463 z m 34.069,46.551 c -6.338,8.931 -12.565,16.01 -17.73,21.274 l 0,-123.875 c 5.142,0.982 10.138,2.011 14.963,3.008 13.32,2.75 26.019,5.366 37.898,6.165 -5.123,43.29 -21.69,74.488 -35.131,93.428 z m 42.166,-109.516 c -12.179,0 -25.827,-2.817 -41.628,-6.08 -7.842,-1.62 -16.113,-3.321 -24.78,-4.782 -0.026,-0.005 -0.053,-0.009 -0.081,-0.013 -12.85,-2.164 -26.579,-3.79 -41.147,-3.79 -24.659,0 -41.934,10.686 -57.175,20.113 -13.905,8.601 -27.037,16.724 -44.872,16.724 -17.835,0 -30.967,-8.123 -44.872,-16.724 -15.241,-9.427 -32.516,-20.113 -57.175,-20.113 -14.575,0 -28.31,1.628 -41.165,3.792 -0.02,0.003 -0.04,0.005 -0.06,0.01 -8.669,1.461 -16.942,3.164 -24.785,4.782 -15.801,3.263 -29.449,6.08 -41.626,6.081 -5.246,0 -9.935,-0.539 -14.197,-1.667 24.867,-6.922 46.528,-23.53 67.64,-39.717 27.567,-21.137 53.605,-41.102 85.764,-41.102 19.124,0 28.048,5.681 37.495,11.696 8.729,5.557 17.755,11.303 32.98,11.303 15.225,0 24.251,-5.746 32.98,-11.303 9.447,-6.014 18.371,-11.696 37.495,-11.696 32.16,0 58.198,19.965 85.764,41.102 21.112,16.187 42.773,32.795 67.64,39.717 -4.26,1.128 -8.949,1.667 -14.195,1.667 z" />
    </g>
  </g>
</svg>
