<?xml version="1.0" encoding="UTF-8" standalone="no"?>
<svg
   xmlns:dc="http://purl.org/dc/elements/1.1/"
   xmlns:cc="http://creativecommons.org/ns#"
   xmlns:rdf="http://www.w3.org/1999/02/22-rdf-syntax-ns#"
   xmlns:svg="http://www.w3.org/2000/svg"
   xmlns="http://www.w3.org/2000/svg"
   version="1.1"
   x="0px"
   y="0px"
   width="128"
   height="128"
   viewBox="0, 0, 128, 128"
   id="svg2451">
  <metadata
     id="metadata2455">
    <rdf:RDF>
      <cc:Work
         rdf:about="">
        <dc:format>image/svg+xml</dc:format>
        <dc:type
           rdf:resource="http://purl.org/dc/dcmitype/StillImage" />
        <dc:title></dc:title>
      </cc:Work>
    </rdf:RDF>
  </metadata>
  <g
     id="Background">
    <rect
       x="0"
       y="0"
       width="128"
       height="128"
       fill="#000000"
       fill-opacity="0"
       id="rect2434" />
  </g>
  <g
     id="g2447">
    <path
       d="M18.092,6 L109.903,6 C116.552,6 122,11.441 122,18.096 L122,109.902 C122,116.559 116.552,122 109.903,122 L18.092,122 C11.436,122 6,116.559 6,109.902 L6,18.096 C6,11.441 11.436,6 18.092,6"
       fill="#737370"
       id="path2437" />
    <g
       transform="matrix(0.2025,0,0,0.2025,11.313137,17.859557)"
       id="g3681"
       style="fill:#ebeded;fill-opacity:1" />
    <g
       transform="matrix(0.2025,0,0,0.2025,11.313137,17.859557)"
       id="g3683"
       style="fill:#ebeded;fill-opacity:1" />
    <g
       transform="matrix(0.2025,0,0,0.2025,11.313137,17.859557)"
       id="g3685"
       style="fill:#ebeded;fill-opacity:1" />
    <g
       transform="matrix(0.2025,0,0,0.2025,11.313137,17.859557)"
       id="g3687"
       style="fill:#ebeded;fill-opacity:1" />
    <g
       transform="matrix(0.2025,0,0,0.2025,11.313137,17.859557)"
       id="g3689"
       style="fill:#ebeded;fill-opacity:1" />
    <g
       transform="matrix(0.2025,0,0,0.2025,11.313137,17.859557)"
       id="g3691"
       style="fill:#ebeded;fill-opacity:1" />
    <g
       transform="matrix(0.2025,0,0,0.2025,11.313137,17.859557)"
       id="g3693"
       style="fill:#ebeded;fill-opacity:1" />
    <g
       transform="matrix(0.2025,0,0,0.2025,11.313137,17.859557)"
       id="g3695"
       style="fill:#ebeded;fill-opacity:1" />
    <g
       transform="matrix(0.2025,0,0,0.2025,11.313137,17.859557)"
       id="g3697"
       style="fill:#ebeded;fill-opacity:1" />
    <g
       transform="matrix(0.2025,0,0,0.2025,11.313137,17.859557)"
       id="g3699"
       style="fill:#ebeded;fill-opacity:1" />
    <g
       transform="matrix(0.2025,0,0,0.2025,11.313137,17.859557)"
       id="g3701"
       style="fill:#ebeded;fill-opacity:1" />
    <g
       transform="matrix(0.2025,0,0,0.2025,11.313137,17.859557)"
       id="g3703"
       style="fill:#ebeded;fill-opacity:1" />
    <g
       transform="matrix(0.2025,0,0,0.2025,11.313137,17.859557)"
       id="g3705"
       style="fill:#ebeded;fill-opacity:1" />
    <g
       transform="matrix(0.2025,0,0,0.2025,11.313137,17.859557)"
       id="g3707"
       style="fill:#ebeded;fill-opacity:1" />
    <g
       transform="matrix(0.2025,0,0,0.2025,11.313137,17.859557)"
       id="g3709"
       style="fill:#ebeded;fill-opacity:1" />
  </g>
  <defs
     id="defs2449" />
  <g
     style="fill:#ebeded;fill-opacity:1"
     transform="matrix(0.2,0,0,0.2,12.485241,14.212754)"
     id="g6726">
    <g
       style="fill:#ebeded;fill-opacity:1"
       id="g6728">
      <circle
         style="fill:#ebeded;fill-opacity:1"
         cx="255.99899"
         cy="64.004997"
         r="64"
         id="circle6730" />
    </g>
  </g>
  <g
     style="fill:#ebeded;fill-opacity:1"
     transform="matrix(0.2,0,0,0.2,12.485241,14.212754)"
     id="g6732">
    <g
       style="fill:#ebeded;fill-opacity:1"
       id="g6734">
      <path
         style="fill:#ebeded;fill-opacity:1"
         d="M 351.871,301.957 337.343,188.805 c -1.632,-16.416 -15.328,-28.8 -31.808,-28.8 l -17.536,0 c -4.256,0 -8.32,1.696 -11.328,4.672 l -20.672,20.672 -20.672,-20.672 c -3.008,-2.976 -7.072,-4.672 -11.328,-4.672 l -17.504,0 c -16.512,0 -30.208,12.384 -31.808,28.384 l -14.56,113.6 c -0.576,4.544 0.832,9.152 3.872,12.576 3.04,3.456 7.392,5.44 12,5.44 l 17.28,0 13.376,163.2 c 1.6,16.384 15.328,28.8 31.84,28.8 l 35.04,0 c 16.512,0 30.208,-12.416 31.872,-29.088 l 13.344,-162.912 17.248,0 c 4.608,0 8.96,-1.984 12,-5.44 3.072,-3.424 4.48,-8.032 3.872,-12.608 z"
         id="path6736" />
    </g>
  </g>
  <g
     style="fill:#ebeded;fill-opacity:1"
     transform="matrix(0.2,0,0,0.2,12.485241,14.212754)"
     id="g6738">
    <g
       style="fill:#ebeded;fill-opacity:1"
       id="g6740">
      <circle
         style="fill:#ebeded;fill-opacity:1"
         cx="415.99899"
         cy="64.004997"
         r="64"
         id="circle6742" />
    </g>
  </g>
  <g
     style="fill:#ebeded;fill-opacity:1"
     transform="matrix(0.2,0,0,0.2,12.485241,14.212754)"
     id="g6744">
    <g
       style="fill:#ebeded;fill-opacity:1"
       id="g6746">
      <path
         style="fill:#ebeded;fill-opacity:1"
         d="m 95.999,0.005 c -35.296,0 -64,28.704 -64,64 0,35.296 28.704,64 64,64 35.264,0 64,-28.704 64,-64 0,-35.296 -28.736,-64 -64,-64 z"
         id="path6748" />
    </g>
  </g>
  <g
     style="fill:#ebeded;fill-opacity:1"
     transform="matrix(0.2,0,0,0.2,12.485241,14.212754)"
     id="g6750">
    <g
       style="fill:#ebeded;fill-opacity:1"
       id="g6752">
      <path
         style="fill:#ebeded;fill-opacity:1"
         d="m 511.871,301.957 -14.528,-113.12 c -1.632,-16.448 -15.296,-28.832 -31.808,-28.832 l -17.536,0 c -4.256,0 -8.32,1.696 -11.328,4.672 l -20.672,20.672 -20.672,-20.672 c -3.008,-2.976 -7.072,-4.672 -11.296,-4.672 l -17.536,0 c -1.984,0 -3.776,0.704 -5.664,1.056 4.128,7.296 7.36,15.2 8.32,24.064 l 14.496,112.768 c 1.792,13.728 -2.496,27.552 -11.712,37.952 -4.352,4.992 -9.92,8.512 -15.872,11.264 l 10.624,104.096 c 1.632,16.416 15.328,28.8 31.84,28.8 l 35.04,0 c 16.512,0 30.208,-12.416 31.872,-29.088 l 13.312,-130.912 17.248,0 c 4.608,0 8.96,-1.984 12,-5.44 3.072,-3.424 4.48,-8.032 3.872,-12.608 z"
         id="path6754" />
    </g>
  </g>
  <g
     style="fill:#ebeded;fill-opacity:1"
     transform="matrix(0.2,0,0,0.2,12.485241,14.212754)"
     id="g6756">
    <g
       style="fill:#ebeded;fill-opacity:1"
       id="g6758">
      <path
         style="fill:#ebeded;fill-opacity:1"
         d="m 139.967,335.685 c -9.088,-10.272 -13.312,-24.064 -11.584,-37.728 l 14.56,-113.632 c 0.832,-8.512 3.968,-16.192 7.968,-23.296 -1.792,-0.32 -3.488,-1.024 -5.376,-1.024 l -17.536,0 c -4.256,0 -8.32,1.696 -11.328,4.672 L 95.999,185.349 75.327,164.677 c -3.008,-2.976 -7.072,-4.672 -11.296,-4.672 l -17.537,0 c -16.512,0 -30.208,12.384 -31.808,28.384 l -14.56,113.6 c -0.576,4.544 0.832,9.152 3.872,12.576 3.04,3.456 7.424,5.44 12,5.44 l 17.28,0 13.376,131.2 c 1.6,16.384 15.328,28.8 31.84,28.8 l 35.04,0 c 16.512,0 30.208,-12.416 31.872,-29.088 l 10.624,-103.84 c -5.983,-2.784 -11.583,-6.336 -16.063,-11.392 z"
         id="path6760" />
    </g>
  </g>
  <g
     transform="translate(-545.15276,-331.34145)"
     id="g6762" />
  <g
     transform="translate(-545.15276,-331.34145)"
     id="g6764" />
  <g
     transform="translate(-545.15276,-331.34145)"
     id="g6766" />
  <g
     transform="translate(-545.15276,-331.34145)"
     id="g6768" />
  <g
     transform="translate(-545.15276,-331.34145)"
     id="g6770" />
  <g
     transform="translate(-545.15276,-331.34145)"
     id="g6772" />
  <g
     transform="translate(-545.15276,-331.34145)"
     id="g6774" />
  <g
     transform="translate(-545.15276,-331.34145)"
     id="g6776" />
  <g
     transform="translate(-545.15276,-331.34145)"
     id="g6778" />
  <g
     transform="translate(-545.15276,-331.34145)"
     id="g6780" />
  <g
     transform="translate(-545.15276,-331.34145)"
     id="g6782" />
  <g
     transform="translate(-545.15276,-331.34145)"
     id="g6784" />
  <g
     transform="translate(-545.15276,-331.34145)"
     id="g6786" />
  <g
     transform="translate(-545.15276,-331.34145)"
     id="g6788" />
  <g
     transform="translate(-545.15276,-331.34145)"
     id="g6790" />
</svg>
