<?xml version="1.0" encoding="UTF-8" standalone="no"?>
<svg
   xmlns:dc="http://purl.org/dc/elements/1.1/"
   xmlns:cc="http://creativecommons.org/ns#"
   xmlns:rdf="http://www.w3.org/1999/02/22-rdf-syntax-ns#"
   xmlns:svg="http://www.w3.org/2000/svg"
   xmlns="http://www.w3.org/2000/svg"
   version="1.1"
   x="0px"
   y="0px"
   width="128"
   height="128"
   viewBox="0, 0, 128, 128"
   id="svg2451">
  <metadata
     id="metadata2455">
    <rdf:RDF>
      <cc:Work
         rdf:about="">
        <dc:format>image/svg+xml</dc:format>
        <dc:type
           rdf:resource="http://purl.org/dc/dcmitype/StillImage" />
        <dc:title></dc:title>
      </cc:Work>
    </rdf:RDF>
  </metadata>
  <g
     id="Background">
    <rect
       x="0"
       y="0"
       width="128"
       height="128"
       fill="#000000"
       fill-opacity="0"
       id="rect2434" />
  </g>
  <g
     id="g2447">
    <path
       d="M18.092,6 L109.903,6 C116.552,6 122,11.441 122,18.096 L122,109.902 C122,116.559 116.552,122 109.903,122 L18.092,122 C11.436,122 6,116.559 6,109.902 L6,18.096 C6,11.441 11.436,6 18.092,6"
       fill="#737370"
       id="path2437" />
    <g
       transform="matrix(0.2025,0,0,0.2025,11.313137,17.859557)"
       id="g3681"
       style="fill:#ebeded;fill-opacity:1" />
    <g
       transform="matrix(0.2025,0,0,0.2025,11.313137,17.859557)"
       id="g3683"
       style="fill:#ebeded;fill-opacity:1" />
    <g
       transform="matrix(0.2025,0,0,0.2025,11.313137,17.859557)"
       id="g3685"
       style="fill:#ebeded;fill-opacity:1" />
    <g
       transform="matrix(0.2025,0,0,0.2025,11.313137,17.859557)"
       id="g3687"
       style="fill:#ebeded;fill-opacity:1" />
    <g
       transform="matrix(0.2025,0,0,0.2025,11.313137,17.859557)"
       id="g3689"
       style="fill:#ebeded;fill-opacity:1" />
    <g
       transform="matrix(0.2025,0,0,0.2025,11.313137,17.859557)"
       id="g3691"
       style="fill:#ebeded;fill-opacity:1" />
    <g
       transform="matrix(0.2025,0,0,0.2025,11.313137,17.859557)"
       id="g3693"
       style="fill:#ebeded;fill-opacity:1" />
    <g
       transform="matrix(0.2025,0,0,0.2025,11.313137,17.859557)"
       id="g3695"
       style="fill:#ebeded;fill-opacity:1" />
    <g
       transform="matrix(0.2025,0,0,0.2025,11.313137,17.859557)"
       id="g3697"
       style="fill:#ebeded;fill-opacity:1" />
    <g
       transform="matrix(0.2025,0,0,0.2025,11.313137,17.859557)"
       id="g3699"
       style="fill:#ebeded;fill-opacity:1" />
    <g
       transform="matrix(0.2025,0,0,0.2025,11.313137,17.859557)"
       id="g3701"
       style="fill:#ebeded;fill-opacity:1" />
    <g
       transform="matrix(0.2025,0,0,0.2025,11.313137,17.859557)"
       id="g3703"
       style="fill:#ebeded;fill-opacity:1" />
    <g
       transform="matrix(0.2025,0,0,0.2025,11.313137,17.859557)"
       id="g3705"
       style="fill:#ebeded;fill-opacity:1" />
    <g
       transform="matrix(0.2025,0,0,0.2025,11.313137,17.859557)"
       id="g3707"
       style="fill:#ebeded;fill-opacity:1" />
    <g
       transform="matrix(0.2025,0,0,0.2025,11.313137,17.859557)"
       id="g3709"
       style="fill:#ebeded;fill-opacity:1" />
  </g>
  <defs
     id="defs2449" />
  <g
     style="fill:#ebeded;fill-opacity:1"
     id="g1872"
     transform="matrix(0.2,0,0,0.2,13.118626,13.329211)">
    <g
       style="fill:#ebeded;fill-opacity:1"
       id="g1870">
      <path
         style="fill:#ebeded;fill-opacity:1"
         id="path1868"
         d="M 507.607,4.394 C 503.194,-0.019 496.509,-1.239 490.822,1.332 L 314.895,80.857 c -5.37,2.428 -8.821,7.775 -8.821,13.669 v 90.189 L 4.394,486.394 c -5.858,5.857 -5.858,15.355 0,21.213 2.929,2.929 6.767,4.394 10.606,4.394 3.839,0 7.678,-1.464 10.606,-4.394 l 301.68,-301.68 h 90.189 c 5.894,0 11.241,-3.451 13.669,-8.821 L 510.669,21.18 c 2.571,-5.688 1.352,-12.373 -3.062,-16.786 z" />
    </g>
  </g>
</svg>
