<?xml version="1.0" encoding="UTF-8" standalone="no"?>
<svg
   xmlns:dc="http://purl.org/dc/elements/1.1/"
   xmlns:cc="http://creativecommons.org/ns#"
   xmlns:rdf="http://www.w3.org/1999/02/22-rdf-syntax-ns#"
   xmlns:svg="http://www.w3.org/2000/svg"
   xmlns="http://www.w3.org/2000/svg"
   id="svg2451"
   viewBox="0, 0, 128, 128"
   height="128"
   width="128"
   y="0px"
   x="0px"
   version="1.1">
  <metadata
     id="metadata2455">
    <rdf:RDF>
      <cc:Work
         rdf:about="">
        <dc:format>image/svg+xml</dc:format>
        <dc:type
           rdf:resource="http://purl.org/dc/dcmitype/StillImage" />
        <dc:title></dc:title>
      </cc:Work>
    </rdf:RDF>
  </metadata>
  <g
     id="Background">
    <rect
       id="rect2434"
       fill-opacity="0"
       fill="#000000"
       height="128"
       width="128"
       y="0"
       x="0" />
  </g>
  <g
     id="g2447">
    <path
       id="path2437"
       fill="#737370"
       d="M18.092,6 L109.903,6 C116.552,6 122,11.441 122,18.096 L122,109.902 C122,116.559 116.552,122 109.903,122 L18.092,122 C11.436,122 6,116.559 6,109.902 L6,18.096 C6,11.441 11.436,6 18.092,6" />
    <g
       style="fill:#ebeded;fill-opacity:1"
       id="g3583"
       transform="matrix(0.2025,0,0,0.2025,11.313137,17.859557)">
      <g
         style="fill:#ebeded;fill-opacity:1"
         id="g3581">
        <path
           style="fill:#ebeded;fill-opacity:1"
           id="path3579"
           d="m 367.443,317.755 -67.484,-10.417 c -1.971,-0.299 -3.993,0.094 -5.699,1.126 -23.598,14.179 -52.921,14.179 -76.519,0 -1.715,-1.032 -3.72,-1.433 -5.699,-1.126 l -67.484,10.417 c -29.348,4.496 -50.66,29.331 -50.66,59.021 V 512 h 17.063 V 376.776 c 0,-21.209 15.22,-38.938 36.191,-42.154 l 64.524,-9.956 c 27.625,15.357 61.043,15.34 88.651,0 l 64.524,9.956 c 20.962,3.216 36.182,20.945 36.182,42.154 V 512 h 17.063 0.008 V 376.776 c -0.002,-29.69 -21.313,-54.525 -50.661,-59.021 z" />
      </g>
    </g>
    <g
       style="fill:#ebeded;fill-opacity:1"
       id="g3589"
       transform="matrix(0.2025,0,0,0.2025,11.313137,17.859557)">
      <g
         style="fill:#ebeded;fill-opacity:1"
         id="g3587">
        <path
           style="fill:#ebeded;fill-opacity:1"
           id="path3585"
           d="m 324.248,0.111 c -13.94,0 -26.337,6.723 -34.126,17.089 C 282.333,6.834 269.937,0.111 255.996,0.111 242.081,0.111 229.71,6.808 221.913,17.148 214.157,6.783 201.804,0.043 187.889,0 c -0.051,0 -0.094,0 -0.145,0 -23.462,0 -42.581,19.042 -42.657,42.512 -0.051,17.234 10.187,32.531 25.594,39.245 v 80.452 c 0,4.709 3.822,8.531 8.531,8.531 h 153.567 c 4.718,0 8.531,-3.822 8.531,-8.54 V 81.749 c 15.297,-6.672 25.535,-21.858 25.594,-38.955 0,-0.009 0,-0.017 0,-0.026 C 366.905,19.247 347.769,0.111 324.248,0.111 Z m 6.398,67.33 c -3.762,0.973 -6.399,4.368 -6.399,8.258 v 77.978 H 187.744 V 75.691 c 0,-3.89 -2.636,-7.286 -6.399,-8.258 -11.338,-2.935 -19.23,-13.156 -19.196,-24.869 0.043,-14.086 11.518,-25.509 25.594,-25.509 0.026,0 0.06,0 0.085,0 14.077,0.051 25.501,11.509 25.509,25.577 0,0.043 0,0.094 0,0.136 0,4.709 3.814,8.523 8.523,8.531 h 0.009 c 4.701,0 8.514,-3.805 8.531,-8.506 0,-0.009 0,-0.017 0,-0.026 0,-0.034 0,-0.06 0,-0.085 0.043,-14.077 11.509,-25.509 25.594,-25.509 14.111,0 25.594,11.483 25.594,25.594 0,4.709 3.814,8.531 8.531,8.531 4.718,0 8.531,-3.822 8.531,-8.531 0,-14.111 11.483,-25.594 25.594,-25.594 14.103,0 25.577,11.475 25.594,25.577 -0.039,11.63 -7.93,21.782 -19.192,24.691 z" />
      </g>
    </g>
    <g
       style="fill:#ebeded;fill-opacity:1"
       id="g3595"
       transform="matrix(0.2025,0,0,0.2025,11.313137,17.859557)">
      <g
         style="fill:#ebeded;fill-opacity:1"
         id="g3593">
        <path
           style="fill:#ebeded;fill-opacity:1"
           id="path3591"
           d="M 332.779,153.678 H 179.212 c -4.709,0 -8.531,3.822 -8.531,8.531 v 51.189 c 0,47.051 38.272,85.315 85.315,85.315 47.043,0 85.315,-38.272 85.315,-85.315 v -51.189 c 0,-4.709 -3.814,-8.531 -8.532,-8.531 z m -8.531,59.72 c 0,37.641 -30.62,68.252 -68.252,68.252 -37.632,0 -68.252,-30.62 -68.252,-68.252 v -42.657 h 136.504 z" />
      </g>
    </g>
    <g
       style="fill:#ebeded;fill-opacity:1"
       id="g3601"
       transform="matrix(0.2025,0,0,0.2025,11.313137,17.859557)">
      <g
         style="fill:#ebeded;fill-opacity:1"
         id="g3599">
        <rect
           style="fill:#ebeded;fill-opacity:1"
           id="rect3597"
           height="42.657001"
           width="17.063"
           y="273.09299"
           x="204.841" />
      </g>
    </g>
    <g
       style="fill:#ebeded;fill-opacity:1"
       id="g3607"
       transform="matrix(0.2025,0,0,0.2025,11.313137,17.859557)">
      <g
         style="fill:#ebeded;fill-opacity:1"
         id="g3605">
        <rect
           style="fill:#ebeded;fill-opacity:1"
           id="rect3603"
           height="42.657001"
           width="17.063"
           y="273.09299"
           x="290.15601" />
      </g>
    </g>
    <g
       style="fill:#ebeded;fill-opacity:1"
       id="g3613"
       transform="matrix(0.2025,0,0,0.2025,11.313137,17.859557)">
      <g
         style="fill:#ebeded;fill-opacity:1"
         id="g3611">
        <path
           style="fill:#ebeded;fill-opacity:1"
           id="path3609"
           d="m 273.315,322.251 -7.158,28.615 -105.304,16.201 c -4.163,0.64 -7.235,4.223 -7.235,8.429 V 512 h 17.063 V 382.825 l 103.675,-15.954 c 3.387,-0.52 6.134,-3.029 6.97,-6.364 l 8.531,-34.126 z" />
      </g>
    </g>
    <g
       style="fill:#ebeded;fill-opacity:1"
       id="g3619"
       transform="matrix(0.2025,0,0,0.2025,11.313137,17.859557)">
      <g
         style="fill:#ebeded;fill-opacity:1"
         id="g3617">
        <rect
           style="fill:#ebeded;fill-opacity:1"
           id="rect3615"
           height="17.063"
           width="17.063"
           y="443.72198"
           x="204.841" />
      </g>
    </g>
    <g
       style="fill:#ebeded;fill-opacity:1"
       id="g3625"
       transform="matrix(0.2025,0,0,0.2025,11.313137,17.859557)">
      <g
         style="fill:#ebeded;fill-opacity:1"
         id="g3623">
        <rect
           style="fill:#ebeded;fill-opacity:1"
           id="rect3621"
           height="17.063"
           width="17.063"
           y="392.534"
           x="204.841" />
      </g>
    </g>
    <g
       style="fill:#ebeded;fill-opacity:1"
       id="g3631"
       transform="matrix(0.2025,0,0,0.2025,11.313137,17.859557)">
      <g
         style="fill:#ebeded;fill-opacity:1"
         id="g3629">
        <rect
           style="fill:#ebeded;fill-opacity:1"
           id="rect3627"
           height="17.063"
           width="17.063"
           y="494.91101"
           x="204.841" />
      </g>
    </g>
    <g
       style="fill:#ebeded;fill-opacity:1"
       id="g3637"
       transform="matrix(0.2025,0,0,0.2025,11.313137,17.859557)">
      <g
         style="fill:#ebeded;fill-opacity:1"
         id="g3635">
        <rect
           style="fill:#ebeded;fill-opacity:1"
           id="rect3633"
           height="17.063"
           width="17.063"
           y="443.72198"
           x="290.15601" />
      </g>
    </g>
    <g
       style="fill:#ebeded;fill-opacity:1"
       id="g3643"
       transform="matrix(0.2025,0,0,0.2025,11.313137,17.859557)">
      <g
         style="fill:#ebeded;fill-opacity:1"
         id="g3641">
        <rect
           style="fill:#ebeded;fill-opacity:1"
           id="rect3639"
           height="17.063"
           width="17.063"
           y="392.534"
           x="290.15601" />
      </g>
    </g>
    <g
       style="fill:#ebeded;fill-opacity:1"
       id="g3649"
       transform="matrix(0.2025,0,0,0.2025,11.313137,17.859557)">
      <g
         style="fill:#ebeded;fill-opacity:1"
         id="g3647">
        <rect
           style="fill:#ebeded;fill-opacity:1"
           id="rect3645"
           height="17.063"
           width="17.063"
           y="494.91101"
           x="290.15601" />
      </g>
    </g>
    <g
       style="fill:#ebeded;fill-opacity:1"
       id="g3655"
       transform="matrix(0.2025,0,0,0.2025,11.313137,17.859557)">
      <g
         style="fill:#ebeded;fill-opacity:1"
         id="g3653">
        <rect
           style="fill:#ebeded;fill-opacity:1"
           id="rect3651"
           height="127.972"
           width="17.063"
           y="384.00201"
           x="341.345" />
      </g>
    </g>
    <g
       style="fill:#ebeded;fill-opacity:1"
       id="g3661"
       transform="matrix(0.2025,0,0,0.2025,11.313137,17.859557)">
      <g
         style="fill:#ebeded;fill-opacity:1"
         id="g3659">
        <rect
           style="fill:#ebeded;fill-opacity:1"
           id="rect3657"
           height="17.063"
           width="127.972"
           y="119.526"
           x="204.841" />
      </g>
    </g>
    <g
       style="fill:#ebeded;fill-opacity:1"
       id="g3667"
       transform="matrix(0.2025,0,0,0.2025,11.313137,17.859557)">
      <g
         style="fill:#ebeded;fill-opacity:1"
         id="g3665">
        <rect
           style="fill:#ebeded;fill-opacity:1"
           id="rect3663"
           height="34.125999"
           width="17.063"
           y="93.931999"
           x="273.09299" />
      </g>
    </g>
    <g
       style="fill:#ebeded;fill-opacity:1"
       id="g3673"
       transform="matrix(0.2025,0,0,0.2025,11.313137,17.859557)">
      <g
         style="fill:#ebeded;fill-opacity:1"
         id="g3671">
        <rect
           style="fill:#ebeded;fill-opacity:1"
           id="rect3669"
           height="34.125999"
           width="17.063"
           y="93.931999"
           x="221.90401" />
      </g>
    </g>
    <g
       style="fill:#ebeded;fill-opacity:1"
       id="g3679"
       transform="matrix(0.2025,0,0,0.2025,11.313137,17.859557)">
      <g
         style="fill:#ebeded;fill-opacity:1"
         id="g3677">
        <rect
           style="fill:#ebeded;fill-opacity:1"
           id="rect3675"
           height="35.174"
           width="17.062"
           transform="matrix(0.9701,-0.2425,0.2425,0.9701,-75.7794,67.0945)"
           y="323.77399"
           x="226.116" />
      </g>
    </g>
    <g
       style="fill:#ebeded;fill-opacity:1"
       id="g3681"
       transform="matrix(0.2025,0,0,0.2025,11.313137,17.859557)" />
    <g
       style="fill:#ebeded;fill-opacity:1"
       id="g3683"
       transform="matrix(0.2025,0,0,0.2025,11.313137,17.859557)" />
    <g
       style="fill:#ebeded;fill-opacity:1"
       id="g3685"
       transform="matrix(0.2025,0,0,0.2025,11.313137,17.859557)" />
    <g
       style="fill:#ebeded;fill-opacity:1"
       id="g3687"
       transform="matrix(0.2025,0,0,0.2025,11.313137,17.859557)" />
    <g
       style="fill:#ebeded;fill-opacity:1"
       id="g3689"
       transform="matrix(0.2025,0,0,0.2025,11.313137,17.859557)" />
    <g
       style="fill:#ebeded;fill-opacity:1"
       id="g3691"
       transform="matrix(0.2025,0,0,0.2025,11.313137,17.859557)" />
    <g
       style="fill:#ebeded;fill-opacity:1"
       id="g3693"
       transform="matrix(0.2025,0,0,0.2025,11.313137,17.859557)" />
    <g
       style="fill:#ebeded;fill-opacity:1"
       id="g3695"
       transform="matrix(0.2025,0,0,0.2025,11.313137,17.859557)" />
    <g
       style="fill:#ebeded;fill-opacity:1"
       id="g3697"
       transform="matrix(0.2025,0,0,0.2025,11.313137,17.859557)" />
    <g
       style="fill:#ebeded;fill-opacity:1"
       id="g3699"
       transform="matrix(0.2025,0,0,0.2025,11.313137,17.859557)" />
    <g
       style="fill:#ebeded;fill-opacity:1"
       id="g3701"
       transform="matrix(0.2025,0,0,0.2025,11.313137,17.859557)" />
    <g
       style="fill:#ebeded;fill-opacity:1"
       id="g3703"
       transform="matrix(0.2025,0,0,0.2025,11.313137,17.859557)" />
    <g
       style="fill:#ebeded;fill-opacity:1"
       id="g3705"
       transform="matrix(0.2025,0,0,0.2025,11.313137,17.859557)" />
    <g
       style="fill:#ebeded;fill-opacity:1"
       id="g3707"
       transform="matrix(0.2025,0,0,0.2025,11.313137,17.859557)" />
    <g
       style="fill:#ebeded;fill-opacity:1"
       id="g3709"
       transform="matrix(0.2025,0,0,0.2025,11.313137,17.859557)" />
  </g>
  <defs
     id="defs2449" />
</svg>
